<svg width="26" height="29" viewBox="0 0 26 29" fill="none" xmlns="http://www.w3.org/2000/svg">
<path d="M11.9494 28.9455C14.0898 28.9455 15.8803 27.4536 16.2914 25.4789H7.60742C8.01879 27.4536 9.80926 28.9455 11.9494 28.9455Z" fill="#5A79D0"/>
<path d="M20.1057 14.1326C20.101 14.1326 20.0962 14.1337 20.0915 14.1337C15.5309 14.1337 11.8188 10.5051 11.8188 6.04488C11.8188 4.81873 12.1073 3.65966 12.6095 2.61738C12.3494 2.59325 12.0859 2.57823 11.8188 2.57823C7.25004 2.57823 3.54618 6.19955 3.54618 10.667V13.8886C3.54618 16.1755 2.52154 18.3341 0.723935 19.8201C0.124731 20.3205 -0.141221 21.1177 0.0738781 21.8955C0.324466 22.8003 1.23918 23.3781 2.1989 23.3781H21.4329C22.4398 23.3781 23.3889 22.7402 23.5932 21.7754C23.7516 21.0289 23.4798 20.2835 22.8877 19.797C21.1693 18.3885 20.1754 16.3187 20.1057 14.1326Z" fill="#5A79D0"/>
<path d="M25.9997 6.04467C25.9997 9.23562 23.3543 11.8223 20.0906 11.8223C16.8271 11.8223 14.1816 9.23562 14.1816 6.04467C14.1816 2.85372 16.8271 0.266846 20.0906 0.266846C23.3543 0.266846 25.9997 2.85372 25.9997 6.04467Z" fill="#C1CDED"/>
</svg>
