<svg width="29" height="26" viewBox="0 0 29 26" fill="none" xmlns="http://www.w3.org/2000/svg">
<path d="M22.9663 16.63L20.7604 14.905C20.7883 14.639 20.8123 14.328 20.8123 13.999C20.8123 13.67 20.7893 13.359 20.7604 13.093L22.9684 11.367C23.3784 11.043 23.4904 10.468 23.2294 9.98905L20.9353 6.02C20.6903 5.57202 20.1533 5.342 19.6084 5.543L17.0053 6.58798C16.5064 6.22798 15.9833 5.924 15.4423 5.681L15.0463 2.92002C14.9813 2.396 14.5253 2 13.9864 2H9.38638C8.84736 2 8.39239 2.396 8.32836 2.912L7.93138 5.68302C7.40736 5.91903 6.89239 6.21903 6.37138 6.59L3.76138 5.54202C3.27233 5.35302 2.68733 5.56498 2.44433 6.011L0.147362 9.98502C-0.123622 10.443 -0.0116376 11.038 0.407378 11.37L2.61336 13.095C2.57835 13.432 2.56138 13.725 2.56138 14C2.56138 14.2751 2.57839 14.568 2.61336 14.906L0.405362 16.632C-0.00465319 16.957 -0.115653 17.532 0.145347 18.01L2.43936 21.979C2.68438 22.426 3.21636 22.658 3.76635 22.456L6.36936 21.411C6.86736 21.77 7.39035 22.074 7.93138 22.318L8.32738 25.078C8.39235 25.604 8.84736 26 9.38736 26H13.9873C14.5264 26 14.9824 25.604 15.0463 25.088L15.4433 22.318C15.9673 22.081 16.4813 21.782 17.0033 21.41L19.6133 22.458C19.7393 22.507 19.8703 22.532 20.0053 22.532C20.3933 22.532 20.7503 22.32 20.9303 21.99L23.2343 18C23.4904 17.532 23.3783 16.957 22.9663 16.63ZM11.6863 18C9.48036 18 7.68636 16.206 7.68636 14C7.68636 11.794 9.48036 10 11.6863 10C13.8923 10 15.6863 11.794 15.6863 14C15.6863 16.206 13.8923 18 11.6863 18Z" fill="#5A79D0"/>
<circle cx="22" cy="7" r="5.75" fill="#C1CDED" stroke="white" stroke-width="2.5"/>
</svg>
