<svg width="390" height="200" viewBox="0 0 390 200" fill="none" xmlns="http://www.w3.org/2000/svg">
<g clip-path="url(#clip0)">
<rect opacity="0.9" width="390" height="200" rx="10" fill="#4669CA"/>
<path d="M251.387 59.3809C256.88 59.3809 260.747 55.8506 260.938 51.1191L260.952 50.958H255.781L255.752 51.1191C255.386 53.4775 253.73 54.9277 251.401 54.9277C248.457 54.9277 246.582 52.4961 246.582 48.4092V48.3945C246.582 44.3516 248.442 41.9346 251.387 41.9346C253.848 41.9346 255.386 43.4873 255.723 45.6846L255.752 45.9043H260.923V45.7578C260.732 41.0264 256.909 37.4814 251.387 37.4814C245.073 37.4814 241.104 41.5098 241.104 48.4092V48.4238C241.104 55.3232 245.044 59.3809 251.387 59.3809ZM267.808 59.2197C269.888 59.2197 271.47 58.3115 272.378 56.7441H272.48V59H277.666V48.1162C277.666 44.8789 274.839 42.7109 270.547 42.7109C266.108 42.7109 263.457 44.835 263.208 47.9404L263.193 48.1309H267.866L267.896 47.9844C268.071 47.1641 268.892 46.5195 270.283 46.5195C271.733 46.5195 272.48 47.2373 272.48 48.3945V49.1855L268.848 49.4199C264.731 49.6982 262.417 51.3828 262.417 54.3857V54.4004C262.417 57.1836 264.6 59.2197 267.808 59.2197ZM267.515 54.0635V54.0488C267.515 53.0967 268.232 52.4961 269.683 52.4082L272.48 52.2178V53.2871C272.48 54.6348 271.294 55.6309 269.624 55.6309C268.35 55.6309 267.515 55.0596 267.515 54.0635ZM280.244 59H285.444V37.8623H280.244V59ZM295.654 59.3369C300.737 59.3369 302.744 56.3486 303.228 54.1367L303.271 53.9609H298.584L298.569 54.0342C298.335 54.6934 297.427 55.6455 295.757 55.6455C293.867 55.6455 292.695 54.3711 292.637 52.2178H303.359V50.6943C303.359 45.8604 300.298 42.7109 295.479 42.7109C290.63 42.7109 287.554 45.8896 287.554 51.0166V51.0312C287.554 56.1875 290.615 59.3369 295.654 59.3369ZM295.596 46.4023C297.119 46.4023 298.203 47.3691 298.467 49.1562H292.71C292.974 47.3984 294.072 46.4023 295.596 46.4023ZM305.381 59H310.581V49.9473C310.581 48.1748 311.606 46.9443 313.262 46.9443C314.961 46.9443 315.825 48.0137 315.825 49.8447V59H321.011V48.7314C321.011 44.9521 319.033 42.7109 315.532 42.7109C313.115 42.7109 311.475 43.8535 310.684 45.8604H310.581V43.0479H305.381V59ZM329.331 59.3369C331.631 59.3369 333.374 58.1797 334.165 56.2754H334.268V59H339.453V37.8623H334.268V45.875H334.165C333.359 43.8975 331.616 42.7109 329.331 42.7109C325.317 42.7109 322.974 45.7285 322.974 51.0166V51.0312C322.974 56.2754 325.347 59.3369 329.331 59.3369ZM331.25 55.1182C329.419 55.1182 328.247 53.5508 328.247 51.0312V51.0166C328.247 48.4678 329.419 46.9443 331.25 46.9443C333.052 46.9443 334.268 48.4824 334.268 51.0166V51.0312C334.268 53.5654 333.066 55.1182 331.25 55.1182ZM349.619 59.3369C354.702 59.3369 356.709 56.3486 357.192 54.1367L357.236 53.9609H352.549L352.534 54.0342C352.3 54.6934 351.392 55.6455 349.722 55.6455C347.832 55.6455 346.66 54.3711 346.602 52.2178H357.324V50.6943C357.324 45.8604 354.263 42.7109 349.443 42.7109C344.595 42.7109 341.519 45.8896 341.519 51.0166V51.0312C341.519 56.1875 344.58 59.3369 349.619 59.3369ZM349.561 46.4023C351.084 46.4023 352.168 47.3691 352.432 49.1562H346.675C346.938 47.3984 348.037 46.4023 349.561 46.4023ZM359.346 59H364.546V50.5039C364.546 48.2773 365.732 47.0615 367.915 47.0615C368.53 47.0615 369.131 47.1787 369.57 47.3545V42.916C369.175 42.7842 368.721 42.7109 368.223 42.7109C366.333 42.7109 365.044 43.8389 364.604 45.8457H364.502V43.0479H359.346V59Z" fill="white"/>
<path opacity="0.1" d="M390 190C390 195.523 385.523 200 380 200L354.866 200C335.556 200 320 184.444 320 165.134L320 140C320 134.477 324.477 130 330 130L355.134 130C374.444 130 390 145.556 390 164.866L390 190Z" fill="white"/>
<path opacity="0.2" d="M390 190C390 195.523 385.523 200 380 200L363.9 200C349.556 200 338 188.444 338 174.1L338 158C338 152.477 342.477 148 348 148L364.1 148C378.444 148 390 159.556 390 173.9L390 190Z" fill="white"/>
<path d="M64.2981 104.667C64.2981 104.667 55.3699 201.056 73.9747 232.045L239.449 234C239.449 234 212.04 150.447 214.414 102.146L64.2981 104.667Z" fill="#E0E0E0"/>
<path d="M64.2981 104.667C64.2981 104.667 53.8111 204.06 86.4875 225.301H245.965C245.965 225.301 217.66 176.779 215.429 104.667H64.2981Z" fill="#EBEBEB"/>
<path d="M218.637 81.4243H63.4873V106.302H218.637V81.4243Z" fill="#3E589F"/>
<path d="M77.354 81.62C77.354 81.62 78.9175 76 84.6186 76C89.4759 76 91.8832 79.8992 91.8832 83.4743C91.8832 87.0494 89.6761 90.8295 84.6186 91.1012" stroke="#E0E0E0" stroke-width="3" stroke-linecap="round" stroke-linejoin="round"/>
<path d="M82.7028 81.3389H75.0474V84.7567H82.7028V81.3389Z" fill="#263238"/>
<path d="M106.827 81.62C106.827 81.62 108.391 76 114.092 76C118.949 76 121.356 79.8992 121.356 83.4743C121.356 87.0494 119.149 90.8295 114.092 91.1012" stroke="#E0E0E0" stroke-width="3" stroke-linecap="round" stroke-linejoin="round"/>
<path d="M112.18 81.3389H104.525V84.7567H112.18V81.3389Z" fill="#263238"/>
<path d="M136.305 81.62C136.305 81.62 137.868 76 143.569 76C148.427 76 150.834 79.8992 150.834 83.4743C150.834 87.0494 148.627 90.8295 143.569 91.1012" stroke="#E0E0E0" stroke-width="3" stroke-linecap="round" stroke-linejoin="round"/>
<path d="M141.654 81.3389H133.998V84.7567H141.654V81.3389Z" fill="#263238"/>
<path d="M165.778 81.62C165.778 81.62 167.341 76 173.042 76C177.9 76 180.307 79.8992 180.307 83.4743C180.307 87.0494 178.1 90.8295 173.042 91.1012" stroke="#E0E0E0" stroke-width="3" stroke-linecap="round" stroke-linejoin="round"/>
<path d="M171.131 81.3389H163.476V84.7567H171.131V81.3389Z" fill="#263238"/>
<path d="M195.256 81.62C195.256 81.62 196.82 76 202.521 76C207.378 76 209.786 79.8992 209.786 83.4743C209.786 87.0494 207.578 90.8295 202.521 91.1012" stroke="#E0E0E0" stroke-width="3" stroke-linecap="round" stroke-linejoin="round"/>
<path d="M200.604 81.3389H192.949V84.7567H200.604V81.3389Z" fill="#263238"/>
<path d="M63.5023 107.228C63.5023 107.228 61.7863 217.993 97.6897 217.993L245.169 218.046C245.169 218.046 224.091 196.538 217.846 107.228H63.5023Z" fill="#F5F5F5"/>
<path d="M224.128 204.322C224.095 204.227 223.938 203.779 223.59 202.807C223.242 201.834 222.703 200.347 222.06 198.393C220.739 194.508 218.895 188.764 216.783 181.342C212.536 166.507 207.416 144.89 203.436 118.248L203.536 118.334H78.4887H77.297L77.421 118.191C79.6709 134.227 81.9828 149.857 85.7247 164.496C87.5172 171.652 89.7832 178.681 92.5079 185.536C95.0939 192.033 98.2291 198.297 101.879 204.26L101.784 204.208L224.124 204.322L101.784 204.432H101.722L101.689 204.38C98.0259 198.414 94.878 192.146 92.2791 185.646C89.5504 178.783 87.2796 171.746 85.4816 164.582C81.7302 149.924 79.4183 134.289 77.1636 118.248V118.105H78.4983L203.545 118.129H203.631V118.215C207.592 144.857 212.688 166.474 216.892 181.308C218.99 188.735 220.811 194.484 222.136 198.373C223.461 202.263 224.066 204.127 224.128 204.322Z" fill="#263238"/>
<path d="M210.882 161.211C210.882 161.282 182.719 161.335 147.989 161.335C113.258 161.335 85.0669 161.282 85.0669 161.211C85.0669 161.139 113.224 161.087 147.989 161.087C182.753 161.087 210.882 161.135 210.882 161.211Z" fill="#263238"/>
<path d="M217.66 184.221C217.66 184.287 189.488 184.345 154.738 184.345C119.988 184.345 91.8164 184.287 91.8164 184.221C91.8164 184.154 119.979 184.097 154.738 184.097C189.497 184.097 217.66 184.149 217.66 184.221Z" fill="#263238"/>
<path d="M206.625 139.041C206.625 139.108 178.463 139.165 143.732 139.165C109.001 139.165 80.8105 139.108 80.8105 139.041C80.8105 138.974 108.968 138.917 143.732 138.917C178.496 138.917 206.625 138.969 206.625 139.041Z" fill="#263238"/>
<path d="M122.281 204.322C122.281 204.322 122.253 204.25 122.205 204.107C122.157 203.964 122.086 203.74 122 203.469C121.819 202.892 121.561 202.062 121.228 201.004C120.56 198.864 119.626 195.761 118.496 191.914C116.251 184.22 113.277 173.552 110.393 161.664C108.963 155.72 107.68 150.033 106.579 144.847C105.478 139.66 104.577 134.975 103.877 131.023C103.51 129.05 103.209 127.262 102.923 125.694C102.637 124.125 102.447 122.772 102.265 121.666C102.084 120.56 101.965 119.707 101.875 119.116C101.836 118.83 101.803 118.61 101.779 118.448C101.755 118.286 101.755 118.224 101.755 118.224C101.777 118.296 101.795 118.369 101.808 118.443C101.836 118.605 101.875 118.825 101.927 119.106L102.361 121.647C102.542 122.753 102.78 124.106 103.061 125.67C103.343 127.233 103.653 129.007 104.015 130.99C104.739 134.932 105.683 139.608 106.77 144.813C107.857 150.019 109.153 155.677 110.583 161.621C113.444 173.505 116.404 184.177 118.606 191.881C119.712 195.727 120.618 198.84 121.261 200.99C121.571 202.058 121.814 202.897 121.986 203.464L122.167 204.112C122.267 204.246 122.281 204.322 122.281 204.322Z" fill="#263238"/>
<path d="M146.687 204.323C146.687 204.323 146.659 204.251 146.611 204.103L146.411 203.465L145.658 200.995C145.004 198.855 144.089 195.752 142.974 191.896C140.762 184.192 137.768 173.529 134.87 161.65C131.972 149.771 129.67 138.927 128.259 131.038C127.896 129.069 127.582 127.282 127.334 125.709C127.086 124.136 126.857 122.787 126.69 121.676C126.524 120.565 126.404 119.722 126.319 119.126C126.281 118.84 126.252 118.62 126.228 118.458C126.204 118.296 126.19 118.234 126.19 118.234C126.19 118.234 126.19 118.306 126.238 118.458L126.352 119.116C126.452 119.712 126.59 120.546 126.771 121.662C126.953 122.777 127.181 124.121 127.453 125.69C127.725 127.258 128.044 129.026 128.406 131.009C129.86 138.884 132.153 149.719 135.08 161.593C138.007 173.467 140.953 184.13 143.122 191.843L145.734 200.972C146.039 202.039 146.272 202.878 146.439 203.45L146.616 204.099C146.645 204.171 146.669 204.246 146.687 204.323Z" fill="#263238"/>
<path d="M172.19 204.322C172.159 204.252 172.132 204.18 172.109 204.107C172.061 203.95 171.99 203.74 171.899 203.468L171.122 201.004C170.44 198.869 169.492 195.761 168.333 191.947C166.045 184.263 162.952 173.624 159.996 161.75C157.041 149.875 154.791 138.998 153.494 131.104C153.165 129.13 152.875 127.338 152.655 125.76C152.436 124.182 152.226 122.829 152.098 121.713C151.969 120.598 151.859 119.749 151.788 119.149C151.755 118.867 151.731 118.643 151.712 118.481C151.693 118.319 151.712 118.257 151.712 118.257C151.712 118.257 151.712 118.329 151.75 118.481L151.85 119.144C151.936 119.74 152.055 120.574 152.207 121.699C152.36 122.824 152.565 124.168 152.808 125.741C153.051 127.314 153.342 129.102 153.68 131.075C155.025 138.979 157.274 149.828 160.249 161.692C163.223 173.557 166.269 184.206 168.519 191.899C169.659 195.737 170.583 198.84 171.227 200.999C171.541 202.067 171.789 202.906 171.961 203.478C172.04 203.751 172.102 203.966 172.147 204.121C172.175 204.245 172.19 204.322 172.19 204.322Z" fill="#263238"/>
<path d="M197.692 204.323C197.661 204.253 197.634 204.181 197.61 204.108L197.396 203.469C197.205 202.897 196.919 202.073 196.59 201.014C195.894 198.884 194.912 195.771 193.73 191.958C191.347 184.293 188.172 173.672 185.15 161.808C183.625 155.878 182.29 150.196 181.241 144.995C180.679 142.402 180.236 139.919 179.811 137.602C179.611 136.439 179.419 135.317 179.235 134.236C179.049 133.159 178.877 132.12 178.758 131.129C177.49 123.192 177.194 118.234 177.194 118.234C177.194 118.234 177.194 118.311 177.228 118.458C177.261 118.606 177.275 118.84 177.309 119.126C177.375 119.726 177.466 120.589 177.59 121.695C177.714 122.801 177.89 124.169 178.095 125.747C178.3 127.325 178.572 129.122 178.872 131.1C179.015 132.091 179.196 133.131 179.387 134.208C179.578 135.285 179.773 136.405 179.973 137.568C180.426 139.88 180.879 142.359 181.442 144.947C182.524 150.139 183.849 155.821 185.369 161.75C188.396 173.605 191.566 184.231 193.883 191.905L196.676 200.986C197.005 202.049 197.263 202.893 197.439 203.455C197.52 203.732 197.582 203.932 197.63 204.099C197.677 204.265 197.692 204.323 197.692 204.323Z" fill="#263238"/>
<path d="M105.607 126.757C105.607 126.757 106.68 137.201 110.827 143.722H135.247C135.247 143.722 129.312 133.159 128.574 125.818L128.04 121.704H105.216L105.607 126.757Z" fill="#A6BDFF"/>
<path d="M125.875 128.587C125.875 128.659 122.4 128.711 118.11 128.711C113.82 128.711 110.345 128.659 110.345 128.587C110.345 128.516 113.82 128.463 118.11 128.463C122.4 128.463 125.875 128.521 125.875 128.587Z" fill="#FAFAFA"/>
<path d="M126.667 131.228C126.667 131.299 123.192 131.352 118.902 131.352C114.612 131.352 111.137 131.299 111.137 131.228C111.137 131.156 114.612 131.104 118.902 131.104C123.192 131.104 126.667 131.161 126.667 131.228Z" fill="#FAFAFA"/>
<path d="M127.429 133.869C127.429 133.935 123.954 133.993 119.664 133.993C115.374 133.993 111.89 133.935 111.89 133.869C111.89 133.802 115.365 133.745 119.655 133.745C123.945 133.745 127.429 133.802 127.429 133.869Z" fill="#FAFAFA"/>
<path d="M128.207 136.51C128.207 136.576 124.732 136.634 120.442 136.634C116.152 136.634 112.677 136.576 112.677 136.51C112.677 136.443 116.152 136.386 120.442 136.386C124.732 136.386 128.207 136.438 128.207 136.51Z" fill="#FAFAFA"/>
<path d="M189.412 152.502C189.412 152.502 190.484 162.946 194.632 169.463H219.042C219.042 169.463 213.108 158.904 212.369 151.563L211.835 147.445H189.002L189.412 152.502Z" fill="#A6BDFF"/>
<path d="M209.68 153.809C209.68 153.88 206.205 153.932 201.915 153.932C197.625 153.932 194.15 153.88 194.15 153.809C194.15 153.737 197.63 153.685 201.915 153.685C206.2 153.685 209.68 153.742 209.68 153.809Z" fill="#E0E0E0"/>
<path d="M210.457 156.449C210.457 156.516 206.982 156.573 202.692 156.573C198.402 156.573 194.927 156.516 194.927 156.449C194.927 156.382 198.402 156.325 202.692 156.325C206.982 156.325 210.457 156.368 210.457 156.449Z" fill="#E0E0E0"/>
<path d="M211.234 159.09C211.234 159.157 207.759 159.214 203.469 159.214C199.179 159.214 195.704 159.157 195.704 159.09C195.704 159.024 199.179 158.966 203.469 158.966C207.759 158.966 211.234 159.024 211.234 159.09Z" fill="#E0E0E0"/>
<path d="M211.992 161.731C211.992 161.798 208.517 161.855 204.227 161.855C199.937 161.855 196.462 161.798 196.462 161.731C196.462 161.664 199.937 161.607 204.227 161.607C208.517 161.607 211.992 161.659 211.992 161.731Z" fill="#E0E0E0"/>
<path d="M173.658 120.183C173.91 120.388 170.75 124.597 165.974 128.954C161.197 133.311 156.745 136.104 156.564 135.842C156.383 135.58 160.439 132.353 165.144 128.039C169.849 123.725 173.381 119.95 173.658 120.183Z" fill="#B0C7FC"/>
<path d="M178.286 136.238C178.086 136.519 172.752 133.049 166.183 128.764C159.615 124.478 154.3 120.984 154.476 120.66C154.652 120.336 160.272 123.392 166.87 127.701C173.467 132.01 178.482 135.962 178.286 136.238Z" fill="#B0C7FC"/>
<path d="M132.225 134.298C132.015 134.026 135.528 131.004 140.066 127.548C144.604 124.092 148.451 121.513 148.646 121.785C148.842 122.056 145.343 125.079 140.805 128.535C136.267 131.99 132.43 134.569 132.225 134.298Z" fill="#B0C7FC"/>
<path d="M151.507 135.771C151.287 136.057 146.616 132.763 140.681 128.978C134.747 125.193 129.813 122.305 129.975 122.004C130.137 121.704 135.376 124.102 141.353 127.934C147.331 131.767 151.712 135.513 151.507 135.771Z" fill="#B0C7FC"/>
<path d="M152.85 163.59C152.85 163.552 153.093 163.494 153.57 163.461C154.272 163.438 154.974 163.509 155.658 163.671C156.751 163.924 157.79 164.369 158.728 164.986C159.991 165.804 161.047 166.904 161.812 168.199C162.734 169.793 163.219 171.601 163.218 173.443C163.226 174.462 163.098 175.479 162.837 176.465C162.549 177.513 162.109 178.514 161.531 179.434C160.219 181.475 158.333 183.082 156.109 184.051C153.886 185.021 151.425 185.31 149.037 184.883C146.558 184.459 144.265 183.296 142.459 181.546C140.79 179.889 139.678 177.753 139.279 175.435C138.903 173.356 139.101 171.214 139.851 169.238C140.508 167.52 141.626 166.018 143.083 164.896C144.266 163.979 145.626 163.318 147.078 162.956C148.166 162.672 149.295 162.579 150.415 162.679C150.631 162.69 150.846 162.717 151.058 162.76C151.258 162.794 151.444 162.817 151.616 162.86C151.954 162.956 152.24 163.022 152.464 163.113C152.908 163.294 153.132 163.409 153.117 163.447C153.079 163.566 152.164 163.17 150.391 163.161C149.335 163.158 148.285 163.318 147.278 163.637C145.948 164.041 144.713 164.707 143.646 165.596C142.361 166.657 141.387 168.045 140.828 169.615C140.19 171.419 140.048 173.362 140.419 175.24C140.799 177.307 141.808 179.206 143.307 180.679C144.946 182.243 147.017 183.281 149.251 183.658C151.479 184.066 153.778 183.782 155.839 182.843C157.763 181.972 159.402 180.576 160.568 178.815C161.098 177.998 161.508 177.108 161.783 176.174C162.037 175.285 162.174 174.367 162.188 173.443C162.219 171.783 161.827 170.142 161.049 168.676C160.384 167.461 159.456 166.411 158.332 165.601C157.481 164.976 156.535 164.494 155.529 164.171C153.861 163.618 152.846 163.704 152.85 163.59Z" fill="#B0C7FC"/>
<path d="M85.0383 158.446C84.7809 158.231 87.784 154.156 92.0026 149.532C96.1497 144.989 99.9536 141.491 100.259 141.8C100.564 142.11 97.1078 145.781 92.9178 150.381C88.7278 154.981 85.31 158.665 85.0383 158.446Z" fill="#B0C7FC"/>
<path d="M104.372 156.502C104.191 156.793 99.3146 154.119 93.4801 150.501C87.6455 146.883 83.0599 143.732 83.241 143.441C83.4222 143.15 88.2414 145.824 94.0807 149.442C99.92 153.06 104.553 156.211 104.372 156.502Z" fill="#B0C7FC"/>
<path d="M150.744 167.37L152.607 170.044C152.682 170.155 152.783 170.245 152.901 170.306C153.019 170.368 153.151 170.399 153.284 170.397H156.545C156.698 170.396 156.849 170.438 156.98 170.519C157.111 170.599 157.216 170.714 157.285 170.852C157.354 170.989 157.383 171.143 157.37 171.295C157.356 171.448 157.3 171.594 157.207 171.717L155.239 174.315C155.158 174.421 155.105 174.545 155.084 174.676C155.062 174.808 155.073 174.942 155.115 175.068L156.14 178.162C156.188 178.307 156.195 178.464 156.16 178.613C156.124 178.762 156.047 178.899 155.938 179.006C155.829 179.114 155.691 179.189 155.542 179.223C155.392 179.256 155.236 179.247 155.091 179.196L152.011 178.129C151.885 178.086 151.751 178.075 151.619 178.095C151.487 178.115 151.362 178.165 151.254 178.243L148.627 180.178C148.503 180.269 148.357 180.324 148.204 180.336C148.051 180.348 147.897 180.316 147.761 180.245C147.625 180.174 147.512 180.066 147.434 179.934C147.356 179.802 147.317 179.65 147.321 179.497L147.383 176.241C147.385 176.107 147.355 175.975 147.295 175.856C147.236 175.736 147.148 175.633 147.04 175.554L144.394 173.648C144.274 173.558 144.181 173.437 144.125 173.298C144.069 173.159 144.052 173.008 144.077 172.86C144.102 172.712 144.166 172.574 144.264 172.461C144.362 172.347 144.49 172.263 144.632 172.218L147.755 171.264C147.882 171.225 147.998 171.155 148.092 171.061C148.187 170.968 148.257 170.853 148.298 170.726L149.285 167.623C149.328 167.475 149.412 167.342 149.527 167.239C149.642 167.137 149.784 167.068 149.935 167.042C150.087 167.016 150.244 167.032 150.386 167.09C150.529 167.148 150.653 167.245 150.744 167.37Z" fill="#B0C7FC"/>
<path d="M201.506 120.297C201.734 120.55 197.582 124.645 192.229 129.435C186.876 134.226 182.353 137.901 182.124 137.644C181.895 137.386 186.047 133.301 191.4 128.511C196.753 123.72 201.272 120.04 201.506 120.297Z" fill="#B0C7FC"/>
<path d="M204.614 135.022C204.461 135.327 198.641 132.72 191.619 129.202C184.598 125.684 179.021 122.576 179.178 122.266C179.335 121.956 185.146 124.569 192.172 128.091C199.199 131.614 204.766 134.717 204.614 135.022Z" fill="#B0C7FC"/>
<path d="M195.704 125.785H224.128L230.949 131.062L224.934 135.995L197.682 135.967L195.704 125.785Z" fill="#A6BDFF"/>
<path opacity="0.2" d="M150.744 167.37L152.607 170.044C152.682 170.155 152.783 170.245 152.901 170.306C153.019 170.368 153.151 170.399 153.284 170.397H156.545C156.698 170.396 156.849 170.438 156.98 170.519C157.111 170.599 157.216 170.714 157.285 170.852C157.354 170.989 157.383 171.143 157.37 171.295C157.356 171.448 157.3 171.594 157.207 171.717L155.239 174.315C155.158 174.421 155.105 174.545 155.084 174.676C155.062 174.808 155.073 174.942 155.115 175.068L156.14 178.162C156.188 178.307 156.195 178.464 156.16 178.613C156.124 178.762 156.047 178.899 155.938 179.006C155.829 179.114 155.691 179.189 155.542 179.223C155.392 179.256 155.236 179.247 155.091 179.196L152.011 178.129C151.885 178.086 151.751 178.075 151.619 178.095C151.487 178.115 151.362 178.165 151.254 178.243L148.627 180.178C148.503 180.269 148.357 180.324 148.204 180.336C148.051 180.348 147.897 180.316 147.761 180.245C147.625 180.174 147.512 180.066 147.434 179.934C147.356 179.802 147.317 179.65 147.321 179.497L147.383 176.241C147.385 176.107 147.355 175.975 147.295 175.856C147.236 175.736 147.148 175.633 147.04 175.554L144.394 173.648C144.274 173.558 144.181 173.437 144.125 173.298C144.069 173.159 144.052 173.008 144.077 172.86C144.102 172.712 144.166 172.574 144.264 172.461C144.362 172.347 144.49 172.263 144.632 172.218L147.755 171.264C147.882 171.225 147.998 171.155 148.092 171.061C148.187 170.968 148.257 170.853 148.298 170.726L149.285 167.623C149.328 167.475 149.412 167.342 149.527 167.239C149.642 167.137 149.784 167.068 149.935 167.042C150.087 167.016 150.244 167.032 150.386 167.09C150.529 167.148 150.653 167.245 150.744 167.37Z" fill="white"/>
<path d="M36.4075 146.672C36.1883 146.615 31.8553 152.979 31.7123 158.456C31.7007 158.992 31.7198 159.528 31.7695 160.062C31.9559 161.979 32.4166 163.858 33.1375 165.644C36.7984 174.896 40.5785 185.87 40.6404 188.367C40.8311 196.07 44.1631 230.649 44.1631 230.649L51.4706 230.839L52.6337 188.372L50.0406 146.324L36.4075 146.672Z" fill="#FFBE9D"/>
<path d="M50.3604 152.135C50.3604 152.135 60.2419 184.206 59.6222 194.559C59.0025 204.913 51.471 230.691 51.471 230.691L50.3604 152.135Z" fill="#EB996E"/>
<path d="M33.4476 146.72C33.4476 146.72 27.9468 153.803 31.8079 164.948C35.6213 176.012 32.8899 189.525 32.8899 189.525C32.8899 189.525 37.7568 185.874 41.208 187.485C45.1358 189.321 47.7528 191.513 52.6483 189.392C57.7344 187.171 61.7767 185.922 66.4243 190.269L59.236 165.196L55.0793 149.232L33.4476 146.72Z" fill="#263238"/>
<path d="M62.2817 138.43C61.0757 138.321 58.9068 127.257 58.9068 127.257L49.9929 130.236C49.9929 130.236 49.726 131.919 55.0934 142.63C55.0934 142.63 58.2538 148.255 62.2007 147.997L62.2817 138.43Z" fill="#EB996E"/>
<path d="M49.4449 116.675C49.4449 116.675 56.1947 116.012 59.336 124.211L59.3646 124.287C59.4218 124.44 59.4743 124.597 59.5315 124.764L62.158 132.157L54.922 135.766V136.586L55.7085 151.415L32.6277 147.053L34.4915 144.37C36.2838 141.896 35.8786 138.421 35.1446 135.456L34.8967 134.445L31.7697 136.08C30.3503 132.84 29.7699 129.294 30.0822 125.77C30.0822 125.679 30.0822 125.593 30.0822 125.508C30.3311 122.811 31.6257 120.319 33.689 118.564C35.7524 116.81 38.4204 115.933 41.1221 116.122L49.4449 116.675Z" fill="#B0C7FC"/>
<g opacity="0.3">
<path opacity="0.3" d="M38.3862 125.226C39.659 130.036 42.009 134.845 44.3733 139.217C44.6021 139.641 45.1026 140.118 45.4649 139.808C45.7414 139.574 45.5936 139.126 45.4268 138.807L38.3862 125.226Z" fill="black"/>
</g>
<path d="M54.3447 127.843C54.5388 128.202 54.6984 128.579 54.8214 128.968C55.074 129.674 55.4316 130.637 55.7748 131.742C55.9412 132.27 56.0012 132.826 55.9511 133.378C55.8898 133.823 55.7528 134.255 55.546 134.655C55.3788 135.029 55.1589 135.378 54.8929 135.689C55.0298 135.312 55.189 134.942 55.3696 134.584C55.5462 134.194 55.6604 133.779 55.708 133.354C55.7441 132.832 55.6811 132.308 55.5221 131.809C55.198 130.765 54.9024 129.821 54.6498 129.021C54.5056 128.64 54.4033 128.246 54.3447 127.843Z" fill="#263238"/>
<path d="M52.4435 103.284C52.4446 104.245 52.6918 105.19 53.1616 106.029C53.6314 106.867 54.3081 107.572 55.1272 108.075C55.5853 108.308 56.028 108.571 56.4523 108.861C56.6643 109.009 56.8391 109.204 56.9632 109.43C57.0872 109.657 57.1571 109.909 57.1674 110.167C57.134 110.973 56.3189 111.488 55.5991 111.855C55.812 112.035 55.9847 112.258 56.1061 112.51C56.2275 112.761 56.2948 113.035 56.3038 113.314C56.3128 113.593 56.2632 113.871 56.1583 114.129C56.0533 114.388 55.8953 114.622 55.6945 114.816C55.4936 115.009 55.2544 115.159 54.9922 115.255C54.73 115.35 54.4507 115.39 54.1722 115.371C53.8937 115.352 53.6223 115.275 53.3755 115.145C53.1286 115.015 52.9118 114.834 52.739 114.615C52.6809 115.37 52.3903 116.089 51.9072 116.673C51.4242 117.257 50.7723 117.677 50.041 117.875C49.3053 118.055 48.5387 118.07 47.7967 117.917C47.0547 117.765 46.3559 117.449 45.7509 116.993C44.5438 116.073 43.6015 114.849 43.0195 113.447" fill="#263238"/>
<path d="M56.3567 106.36C56.3567 106.36 56.452 106.464 56.4472 106.707C56.4388 106.876 56.3914 107.041 56.3087 107.188C56.226 107.335 56.1102 107.461 55.9706 107.556C55.7488 107.681 55.4984 107.747 55.2436 107.747C54.9889 107.747 54.7385 107.681 54.5167 107.556C53.9857 107.274 53.5484 106.843 53.2582 106.317C52.7188 105.397 52.3732 104.377 52.2429 103.318C52.1684 102.886 52.1684 102.444 52.2429 102.012C52.2811 102.012 52.2954 102.489 52.4384 103.294C52.6217 104.313 52.9797 105.292 53.4966 106.188C53.7483 106.684 54.1328 107.099 54.6073 107.389C54.7971 107.498 55.0107 107.558 55.2293 107.565C55.4479 107.571 55.6648 107.524 55.8609 107.427C55.9861 107.35 56.0934 107.248 56.1756 107.126C56.2578 107.004 56.313 106.867 56.3376 106.722C56.3805 106.488 56.3328 106.364 56.3567 106.36Z" fill="#263238"/>
<path d="M48.7299 117.061C48.8348 115.23 48.9635 113.414 48.9635 113.414C48.9635 113.414 51.8903 113.104 52.0667 110.201C52.2431 107.298 52.0667 100.615 52.0667 100.615L46.7374 98.0127L40.8647 102.451L41.4654 117.004C41.5016 117.902 41.8704 118.755 42.5002 119.398C43.1299 120.04 43.9758 120.425 44.8736 120.479C45.3519 120.51 45.8316 120.447 46.2851 120.291C46.7386 120.136 47.1567 119.893 47.5154 119.575C47.8741 119.257 48.1661 118.871 48.3746 118.44C48.5831 118.008 48.7039 117.539 48.7299 117.061Z" fill="#FFBE9D"/>
<path d="M51.4848 105.491C51.4848 105.565 51.463 105.637 51.4222 105.698C51.3813 105.759 51.3232 105.807 51.2553 105.835C51.1874 105.863 51.1126 105.87 51.0405 105.856C50.9684 105.842 50.9021 105.806 50.8501 105.754C50.7981 105.702 50.7627 105.636 50.7484 105.564C50.734 105.492 50.7414 105.417 50.7695 105.349C50.7977 105.281 50.8453 105.223 50.9065 105.182C50.9676 105.141 51.0395 105.12 51.113 105.12C51.2116 105.12 51.3062 105.159 51.3759 105.229C51.4457 105.298 51.4848 105.393 51.4848 105.491Z" fill="#263238"/>
<path d="M51.8284 105.087C51.7807 105.134 51.509 104.901 51.1086 104.882C50.7082 104.862 50.4079 105.048 50.365 104.996C50.3221 104.944 50.3936 104.886 50.5271 104.796C50.7036 104.681 50.9125 104.626 51.1228 104.639C51.3331 104.651 51.5337 104.732 51.6949 104.867C51.8284 104.972 51.8665 105.063 51.8284 105.087Z" fill="#263238"/>
<path d="M47.1807 105.491C47.1814 105.54 47.1723 105.588 47.1542 105.633C47.136 105.678 47.1091 105.719 47.0749 105.754C47.0408 105.789 47.0001 105.816 46.9553 105.835C46.9104 105.854 46.8623 105.863 46.8137 105.863C46.7151 105.863 46.6205 105.824 46.5508 105.754C46.4811 105.685 46.4419 105.59 46.4419 105.491C46.4419 105.393 46.4811 105.298 46.5508 105.229C46.6205 105.159 46.7151 105.12 46.8137 105.12C46.8623 105.12 46.9104 105.129 46.9553 105.148C47.0001 105.167 47.0408 105.194 47.0749 105.229C47.1091 105.263 47.136 105.304 47.1542 105.35C47.1723 105.395 47.1814 105.443 47.1807 105.491Z" fill="#263238"/>
<path d="M47.4148 105.087C47.3671 105.134 47.0907 104.901 46.6903 104.882C46.2898 104.862 45.9943 105.048 45.9514 104.996C45.9085 104.944 45.98 104.886 46.1135 104.796C46.29 104.681 46.4989 104.626 46.7092 104.639C46.9195 104.651 47.1201 104.732 47.2813 104.867C47.4005 104.972 47.4386 105.063 47.4148 105.087Z" fill="#263238"/>
<path d="M48.8542 108.438C49.0675 108.382 49.287 108.355 49.5073 108.357C49.6074 108.357 49.7122 108.357 49.7361 108.261C49.7509 108.152 49.7309 108.04 49.6789 107.942C49.5883 107.67 49.4977 107.403 49.4072 107.117C49.2165 106.536 49.0497 106.002 48.9305 105.616C48.8547 105.41 48.8051 105.195 48.7827 104.977C48.89 105.167 48.9748 105.368 49.0354 105.578C49.1736 105.959 49.3547 106.488 49.5454 107.074C49.6312 107.356 49.717 107.627 49.8076 107.899C49.8669 108.029 49.8787 108.176 49.8409 108.314C49.8055 108.369 49.7546 108.414 49.6945 108.441C49.6344 108.468 49.5676 108.477 49.5025 108.466C49.286 108.479 49.0687 108.47 48.8542 108.438Z" fill="#263238"/>
<path d="M47.5386 108.838C47.1382 108.571 48.6588 109.505 49.4739 109.505C49.3276 109.708 49.1173 109.855 48.8768 109.923C48.6363 109.992 48.3798 109.977 48.1487 109.881C47.2907 109.519 47.5386 108.838 47.5386 108.838Z" fill="white"/>
<path d="M48.9685 113.415C47.5901 113.355 46.2572 112.904 45.1265 112.113C45.1265 112.113 45.9988 114.244 48.9065 114.125L48.9685 113.415Z" fill="#EB996E"/>
<path d="M50.8462 98.4846C47.9861 95.5006 45.9983 96.1012 44.8686 96.1012C43.6279 96.2402 42.4294 96.6342 41.3482 97.2585C40.2671 97.8827 39.3266 98.7237 38.586 99.7288C37.7852 100.563 36.6411 103.28 36.5077 104.238C36.4552 105.205 36.4648 106.175 36.5363 107.141C36.5363 108.094 36.3075 109.153 35.5829 109.796C35.1062 110.201 34.477 110.435 34.2005 110.983C34.0736 111.319 34.068 111.688 34.1846 112.028C34.3013 112.367 34.5328 112.655 34.8393 112.842C35.468 113.195 36.1911 113.344 36.9081 113.266C36.8499 113.988 37.0614 114.706 37.5016 115.281C37.9418 115.856 38.5795 116.247 39.2915 116.379C40.0175 116.475 40.7523 116.285 41.3412 115.85C41.8282 116.323 42.344 116.766 42.8856 117.175C43.0064 112.955 42.9174 108.736 42.6187 104.519C44.554 104.176 48.0242 103.132 48.6296 100.034C49.4018 101.798 50.5745 102.76 52.1332 104.095C52.1427 104.1 53.7348 101.473 50.8462 98.4846Z" fill="#263238"/>
<path d="M42.8428 103.404C43.2369 103.354 43.6356 103.354 44.0297 103.404C44.9592 103.506 45.8998 103.395 46.7801 103.079C47.2453 102.888 47.6445 102.565 47.9289 102.15C48.1606 101.803 48.3225 101.415 48.4056 101.006C48.5439 100.305 48.4771 99.8475 48.52 99.8428C48.6414 100.23 48.6643 100.641 48.5868 101.039C48.5286 101.479 48.3775 101.902 48.1434 102.279C47.8423 102.742 47.4088 103.104 46.8993 103.318C45.9846 103.65 44.9997 103.742 44.0392 103.585C43.6356 103.562 43.235 103.501 42.8428 103.404Z" fill="#263238"/>
<path d="M35.2925 110.501C35.4539 110.505 35.6149 110.483 35.7692 110.435C35.9702 110.355 36.1478 110.226 36.2854 110.059C36.4229 109.893 36.5159 109.694 36.5557 109.481C36.6338 108.834 36.5106 108.178 36.2029 107.603C36.0368 107.238 35.8997 106.86 35.793 106.473C35.6915 106.048 35.6641 105.607 35.712 105.172C35.81 104.336 36.1058 103.535 36.5747 102.836C36.9518 102.274 37.3916 101.755 37.8856 101.292C38.3003 100.892 38.6578 100.596 38.9057 100.396C39.0258 100.279 39.1623 100.181 39.3109 100.105C39.3395 100.138 38.8342 100.61 38.0143 101.421C37.5499 101.89 37.1347 102.406 36.775 102.96C36.3402 103.635 36.0632 104.399 35.9646 105.196C35.9232 105.604 35.9473 106.016 36.0361 106.416C36.1374 106.791 36.2665 107.157 36.4222 107.513C36.7391 108.132 36.8478 108.838 36.7321 109.524C36.6783 109.757 36.564 109.971 36.4007 110.145C36.2375 110.319 36.0311 110.447 35.8025 110.516C35.6771 110.545 35.5466 110.545 35.4212 110.516C35.3306 110.53 35.2925 110.511 35.2925 110.501Z" fill="#263238"/>
<path opacity="0.3" d="M35.3735 142.568C35.3735 142.568 36.2316 149.179 42.6667 148.941C46.9709 148.747 51.2576 148.27 55.4989 147.511L55.4322 146.257L35.3735 142.568Z" fill="black"/>
<path d="M72.6492 138.368C72.0772 137.448 68.1446 139.641 67.7967 139.798C67.4487 139.955 67.2056 139.46 67.5249 139.321C68.0016 139.135 72.7684 137.076 72.2298 136.17C71.9247 135.694 71.0762 136.299 71.0762 136.299C71.0762 136.299 66.7289 138.559 66.4858 138.12C66.2427 137.682 68.7405 136.266 69.6176 135.851C70.4947 135.436 70.6472 134.86 70.1419 134.626C69.8035 134.469 67.0816 135.679 66.2236 136.109C65.3656 136.538 63.0251 137.767 63.6877 136.228C64.3503 134.688 64.274 133.253 63.9832 132.891C63.9078 132.812 63.8096 132.758 63.7023 132.738C63.595 132.718 63.484 132.731 63.3847 132.777C63.2855 132.822 63.203 132.898 63.1488 132.993C63.0946 133.088 63.0713 133.197 63.0823 133.306C63.0396 133.869 62.9193 134.424 62.7248 134.955C62.5846 135.388 62.3718 135.794 62.0956 136.156C61.7714 136.58 61.4807 136.924 61.2233 137.21C58.7159 138.087 51.561 140.303 44.8779 139.693C43.6672 139.583 40.5878 131.499 40.5878 131.499L32.265 135.789C32.265 135.789 32.1125 136.242 35.9068 143.626C41.074 153.679 64.417 143.249 64.417 143.249V143.225C66.1874 142.874 67.9377 142.429 69.6605 141.891C72.0057 141.042 71.9342 140.828 71.7865 140.575C71.3956 139.884 67.6012 141.91 68.1637 140.999C68.7262 140.089 73.0878 139.069 72.6492 138.368Z" fill="#FFBE9D"/>
</g>
<defs>
<clipPath id="clip0">
<rect width="390" height="200" fill="white"/>
</clipPath>
</defs>
</svg>
