<svg width="390" height="200" viewBox="0 0 390 200" fill="none" xmlns="http://www.w3.org/2000/svg">
<g clip-path="url(#clip0)">
<rect opacity="0.9" width="390" height="200" rx="10" fill="#FD9644"/>
<path d="M146.808 143.593V164.182C146.814 168.241 145.246 172.145 142.435 175.074L123.222 195.176H134.1L154.06 175.53C155.549 174.066 156.732 172.321 157.54 170.396C158.349 168.471 158.767 166.404 158.77 164.316V143.593H146.808Z" fill="#FD8421"/>
<path opacity="0.4" d="M158.77 143.593V164.294C158.773 165.454 158.642 166.61 158.381 167.74C157.727 170.701 156.225 173.407 154.06 175.53L134.1 195.176H123.222L142.435 175.074C145.246 172.145 146.814 168.241 146.808 164.182V143.593H158.77Z" fill="white"/>
<path opacity="0.2" d="M158.767 143.593V164.294C158.77 165.454 158.64 166.61 158.378 167.74L146.806 163.068V143.593H158.767Z" fill="black"/>
<path d="M115.662 197.42L99.5597 258.766C99.4155 259.324 99.0897 259.819 98.6337 260.172C98.1776 260.525 97.6171 260.717 97.0403 260.717H68.2661C68.0291 260.716 67.7955 260.661 67.583 260.556C67.3705 260.451 67.1848 260.299 67.0401 260.111C66.8949 259.924 66.795 259.706 66.7483 259.474C66.7016 259.242 66.7094 259.002 66.771 258.773L82.8812 197.42H79.7863L63.8778 258.011C63.7035 258.682 63.685 259.385 63.8237 260.064C63.9623 260.744 64.2545 261.383 64.6779 261.933C65.1013 262.482 65.6446 262.928 66.2665 263.236C66.8884 263.543 67.5724 263.704 68.2661 263.707H97.0403C98.2774 263.706 99.4794 263.296 100.459 262.54C101.438 261.784 102.139 260.725 102.453 259.528L118.75 197.42H115.662Z" fill="#FD8421"/>
<g opacity="0.8">
<path opacity="0.4" d="M115.662 197.42L99.5597 258.766C99.4155 259.324 99.0897 259.819 98.6337 260.172C98.1776 260.525 97.6171 260.717 97.0403 260.717H68.2661C68.0291 260.716 67.7955 260.661 67.583 260.556C67.3705 260.451 67.1848 260.299 67.0401 260.111C66.8949 259.924 66.795 259.706 66.7483 259.474C66.7016 259.242 66.7094 259.002 66.771 258.773L82.8812 197.42H79.7863L63.8778 258.011C63.7035 258.682 63.685 259.385 63.8237 260.064C63.9623 260.744 64.2545 261.383 64.6779 261.933C65.1013 262.482 65.6446 262.928 66.2665 263.236C66.8884 263.543 67.5724 263.704 68.2661 263.707H97.0403C98.2774 263.706 99.4794 263.296 100.459 262.54C101.438 261.784 102.139 260.725 102.453 259.528L118.75 197.42H115.662Z" fill="white"/>
</g>
<path d="M122.25 263.709L104.645 196.576L101.751 197.331L119.155 263.709H122.25Z" fill="#FD8421"/>
<path d="M158.133 263.709L140.528 196.576L137.635 197.331L155.038 263.709H158.133Z" fill="#FD8421"/>
<g opacity="0.8">
<path opacity="0.5" d="M122.25 263.709L104.645 196.576L101.751 197.331L119.155 263.709H122.25Z" fill="white"/>
</g>
<g opacity="0.8">
<path opacity="0.5" d="M158.133 263.709L140.528 196.576L137.635 197.331L155.038 263.709H158.133Z" fill="white"/>
</g>
<path opacity="0.2" d="M79.7833 197.42H82.8783L80.4486 206.667L77.5854 205.792L79.7833 197.42Z" fill="black"/>
<path opacity="0.2" d="M104.645 196.576L108.644 211.834L105.287 210.818L101.751 197.331L104.645 196.576Z" fill="black"/>
<path opacity="0.2" d="M115.663 197.42H118.751L113.682 216.782L110.812 215.907L115.663 197.42Z" fill="black"/>
<path opacity="0.2" d="M147.592 223.697L144.221 222.665L137.635 197.517L140.528 196.695L147.592 223.697Z" fill="black"/>
<path d="M77.0559 198.442L63.0762 122.764L62.8893 121.621C62.7512 120.914 62.77 120.185 62.9444 119.486C63.1187 118.787 63.4445 118.135 63.8985 117.576C64.3371 117.051 64.8877 116.631 65.51 116.346C66.1322 116.062 66.8103 115.92 67.4944 115.932H97.7563C99.1925 116.002 100.564 116.549 101.655 117.486C102.746 118.422 103.495 119.696 103.782 121.105L104.006 122.383L117.978 197.888L115.033 198.427L101.016 122.697L100.836 121.636C100.681 120.913 100.298 120.26 99.7432 119.772C99.1888 119.283 98.4924 118.985 97.7563 118.922H67.4645C67.2189 118.912 66.9743 118.959 66.749 119.057C66.5237 119.155 66.3236 119.303 66.1637 119.49C65.9891 119.718 65.8665 119.981 65.8045 120.261C65.7425 120.542 65.7426 120.832 65.8049 121.112L66.0142 122.368L80.0013 197.873L77.0559 198.442Z" fill="#FD8421"/>
<g opacity="0.8">
<path opacity="0.5" d="M77.0559 198.442L63.0762 122.764L62.8893 121.621C62.7512 120.914 62.77 120.185 62.9444 119.486C63.1187 118.787 63.4445 118.135 63.8985 117.576C64.3371 117.051 64.8877 116.631 65.51 116.346C66.1322 116.062 66.8103 115.92 67.4944 115.932H97.7563C99.1925 116.002 100.564 116.549 101.655 117.486C102.746 118.422 103.495 119.696 103.782 121.105L104.006 122.383L117.978 197.888L115.033 198.427L101.016 122.697L100.836 121.636C100.681 120.913 100.298 120.26 99.7432 119.772C99.1888 119.283 98.4924 118.985 97.7563 118.922H67.4645C67.2189 118.912 66.9743 118.959 66.749 119.057C66.5237 119.155 66.3236 119.303 66.1637 119.49C65.9891 119.718 65.8665 119.981 65.8045 120.261C65.7425 120.542 65.7426 120.832 65.8049 121.112L66.0142 122.368L80.0013 197.873L77.0559 198.442Z" fill="white"/>
</g>
<path d="M83.1752 190.939H140.686C141.678 190.939 142.628 191.333 143.329 192.034C144.03 192.735 144.424 193.685 144.424 194.677V199.663H79.4373V194.662C79.4413 193.673 79.8369 192.726 80.5374 192.028C81.238 191.331 82.1865 190.939 83.1752 190.939Z" fill="#DD6909"/>
<path d="M145.32 195.309H78.5387C77.7088 195.309 77.0361 195.982 77.0361 196.812V198.172C77.0361 199.002 77.7088 199.675 78.5387 199.675H145.32C146.15 199.675 146.822 199.002 146.822 198.172V196.812C146.822 195.982 146.15 195.309 145.32 195.309Z" fill="#FD8421"/>
<path opacity="0.4" d="M145.32 195.309H78.5387C77.7088 195.309 77.0361 195.982 77.0361 196.812V198.172C77.0361 199.002 77.7088 199.675 78.5387 199.675H145.32C146.15 199.675 146.822 199.002 146.822 198.172V196.812C146.822 195.982 146.15 195.309 145.32 195.309Z" fill="white"/>
<path d="M108.179 153.314H70.1795L64.5129 122.663H102.505L108.126 153.03L108.179 153.314Z" fill="#DD6909"/>
<path d="M145.559 87.9923C145.559 87.9923 140.782 76.8982 140.37 75.7096C139.959 74.5209 140.445 68.5179 140.079 67.4863C139.713 66.4546 134.166 65.7145 132.992 65.8491C131.818 65.9836 132.85 75.2685 133.336 76.0012C133.969 76.7549 134.684 77.4368 135.466 78.0346L139.69 90.7434L145.559 87.9923Z" fill="#FFD5BD"/>
<path d="M121.392 108.933C124.652 109.449 137.996 111.378 140.979 109.389C143.386 107.782 136.605 81.729 136.605 81.729L142.638 79.2695C142.638 79.2695 156.969 110.832 149.314 118.039C145.427 121.702 134.497 122.629 118.776 122.629L121.392 108.933Z" fill="#FD8421"/>
<path opacity="0.7" d="M121.392 108.933C124.652 109.449 137.996 111.378 140.979 109.389C143.386 107.782 136.605 81.729 136.605 81.729L142.638 79.2695C142.638 79.2695 156.969 110.832 149.314 118.039C145.427 121.702 134.497 122.629 118.776 122.629L121.392 108.933Z" fill="#2E353A"/>
<path opacity="0.1" d="M126.918 122.554C124.6 122.621 122.126 122.651 119.524 122.651L121.767 114.061C124.197 116.393 125.973 119.321 126.918 122.554Z" fill="black"/>
<path d="M140.205 127.133L156.024 143.863" stroke="#2E353A" stroke-width="2" stroke-miterlimit="10"/>
<path d="M128.865 136.988C128.865 136.988 140.938 136.614 142.194 136.487C143.45 136.36 148.676 133.369 149.797 133.25C150.919 133.13 153.909 137.855 154.283 138.976C154.656 140.097 145.813 143.088 144.938 142.968C143.987 142.709 143.068 142.348 142.194 141.892L128.865 143.462V136.988Z" fill="#FFD5BD"/>
<path d="M122.001 174.621L120.551 165.515L87.164 163.519C87.164 163.519 83.613 182.463 86.3417 187.509C91.2084 196.517 117.456 191.994 125.133 192.854C120.543 211.626 120.992 248.309 120.992 248.309L131.959 249.147C131.959 249.147 140.399 209.622 142.103 190.836C143.255 178.164 132.751 178.478 122.001 174.621Z" fill="#2E353A"/>
<path d="M147.289 246.179L136.734 243.077C136.734 243.077 143.073 207.507 149.427 195.172C148.949 195.015 148.314 194.813 147.529 194.581C146.116 194.155 144.239 193.625 142.034 193.012C126.694 188.758 95.602 180.781 95.602 180.781L109.806 167.527C109.806 167.527 166.382 176.154 167.556 191.06C168.117 198.23 147.289 246.179 147.289 246.179Z" fill="#2E353A"/>
<path opacity="0.2" d="M147.558 194.583C146.145 194.157 144.268 193.626 142.063 193.013C142.504 189.395 142.511 185.246 140.77 183.13C137.308 178.914 128.405 176.439 123.336 175.542C119.097 174.794 104.856 173.299 104.856 173.299C104.856 173.299 123.336 171.528 142.235 177.037C151.535 179.773 149.718 188.901 147.558 194.583Z" fill="black"/>
<path d="M121.388 108.931C121.388 108.931 126.232 126.873 120.573 165.515C110.025 165.291 92.2996 164.88 87.1637 164.767C87.0366 159.385 91.0063 133.01 86.3638 107.57C89.7069 106.994 93.0873 106.659 96.4785 106.569C101.442 106.392 106.412 106.499 111.363 106.89C114.752 107.311 118.104 107.994 121.388 108.931Z" fill="#FD8421"/>
<path opacity="0.5" d="M121.388 108.931C121.388 108.931 126.232 126.873 120.573 165.515C110.025 165.291 92.2996 164.88 87.1637 164.767C87.0366 159.385 91.0063 133.01 86.3638 107.57C89.7069 106.994 93.0873 106.659 96.4785 106.569C101.442 106.392 106.412 106.499 111.363 106.89C114.752 107.311 118.104 107.994 121.388 108.931Z" fill="white"/>
<path opacity="0.1" d="M98.0898 140.35C95.0995 139.692 91.5336 136.814 88.5956 133.973C88.5956 128.919 88.3489 123.544 87.8032 118.064C91.9597 124.217 103.218 141.478 98.0898 140.35Z" fill="black"/>
<path d="M86.3444 107.573C74.9139 111.692 94.9789 142.641 101.206 145.834C107.433 149.026 139.086 142.342 139.086 142.342L137.837 135.943C137.837 135.943 109.833 136.653 107.254 136.003C104.675 135.353 98.5448 122.158 95.0162 115.93C93.0547 112.318 90.0263 109.4 86.3444 107.573Z" fill="#FD8421"/>
<path opacity="0.7" d="M86.3444 107.573C74.9139 111.692 94.9789 142.641 101.206 145.834C107.433 149.026 139.086 142.342 139.086 142.342L137.837 135.943C137.837 135.943 109.833 136.653 107.254 136.003C104.675 135.353 98.5448 122.158 95.0162 115.93C93.0547 112.318 90.0263 109.4 86.3444 107.573Z" fill="#2E353A"/>
<path d="M135.597 135.365L137.219 143.865L140.209 142.841L139.088 135.365H135.597Z" fill="#FD8421"/>
<path d="M135.597 135.365L137.219 143.865L140.209 142.841L139.088 135.365H135.597Z" fill="#FEC290"/>
<path d="M136.399 83.6174L144.443 80.4327L142.881 77.6891L135.741 80.186L136.399 83.6174Z" fill="#FD8421"/>
<path d="M136.399 83.6174L144.443 80.4327L142.881 77.6891L135.741 80.186L136.399 83.6174Z" fill="#FEC290"/>
<path opacity="0.4" d="M94.6592 106.644C94.6592 106.644 94.876 110.135 101.731 113.499L106.471 110.067C106.471 110.067 107.824 118.829 108.714 125.37C108.714 125.37 108.654 114.904 107.757 110.882L111.382 112.168C111.382 112.168 108.295 106.868 103.04 105.649C97.7841 104.431 94.6592 106.644 94.6592 106.644Z" fill="black"/>
<path d="M98.2933 89.8836C99.1306 94.6905 99.8782 103.482 96.4617 106.607L106.442 109.388L111.316 106.928C106.001 105.538 106.225 101.576 107.234 97.8752L98.2933 89.8836Z" fill="#FFD5BD"/>
<path d="M101.957 93.1447L107.264 97.8768C107.019 98.7379 106.846 99.6182 106.749 100.508C104.715 100.172 101.964 97.8693 101.792 95.7313C101.686 94.8663 101.742 93.9892 101.957 93.1447Z" fill="#9E624E"/>
<path d="M105.369 76.5237C103.194 78.8861 105.07 81.5848 112.015 84.8667C113.667 81.226 112.658 75.1482 110.415 74.0866C108.173 73.0251 107.268 74.4754 105.369 76.5237Z" fill="#2E353A"/>
<path d="M95.3707 83.9558C97.135 90.213 97.8527 93.9584 101.755 96.5226C107.631 100.373 114.83 95.775 114.972 89.1141C115.092 83.1335 112.191 73.9009 105.441 72.7272C103.955 72.4618 102.426 72.5801 100.999 73.0708C99.5714 73.5615 98.2931 74.4084 97.2847 75.5314C96.2763 76.6543 95.5712 78.0161 95.2363 79.4877C94.9013 80.9594 94.9476 82.4921 95.3707 83.9409V83.9558Z" fill="#FFD5BD"/>
<path d="M105.222 83.6401C105.334 84.1554 105.7 84.5139 106.036 84.4392C106.372 84.3645 106.551 83.894 106.439 83.3787C106.327 82.8634 105.968 82.505 105.632 82.5722C105.296 82.6394 105.147 83.1248 105.222 83.6401Z" fill="#2E353A"/>
<path d="M111.088 82.3779C111.2 82.8931 111.566 83.2516 111.902 83.1769C112.238 83.1023 112.424 82.6318 112.312 82.109C112.2 81.5862 111.835 81.2353 111.498 81.3099C111.162 81.3846 110.976 81.8626 111.088 82.3779Z" fill="#2E353A"/>
<path d="M109.229 83.0367C110.184 84.4831 111.336 85.789 112.653 86.9166C112.354 87.2448 111.987 87.5038 111.577 87.6755C111.168 87.8473 110.726 87.9276 110.283 87.9109L109.229 83.0367Z" fill="#A15941"/>
<path d="M103.22 82.14C103.164 82.1608 103.104 82.1641 103.046 82.1495C102.989 82.135 102.937 82.1033 102.898 82.0586C102.859 82.0139 102.834 81.9584 102.828 81.8995C102.821 81.8406 102.833 81.7811 102.861 81.7288C103.056 81.2762 103.358 80.8774 103.741 80.5664C104.124 80.2553 104.576 80.0412 105.059 79.9421C105.137 79.9289 105.217 79.9464 105.283 79.991C105.348 80.0356 105.394 80.1038 105.41 80.1814C105.419 80.2622 105.397 80.3433 105.348 80.4085C105.3 80.4737 105.228 80.5181 105.148 80.5327C104.769 80.6169 104.415 80.7903 104.116 81.0387C103.817 81.287 103.581 81.603 103.429 81.9606C103.411 82.0051 103.383 82.0446 103.346 82.0759C103.31 82.1071 103.266 82.1291 103.22 82.14Z" fill="#2E353A"/>
<path d="M113.334 79.8201C113.277 79.8347 113.216 79.8318 113.16 79.8118C113.104 79.7919 113.056 79.7557 113.02 79.7079C112.788 79.3956 112.486 79.1422 112.138 78.9682C111.79 78.7942 111.406 78.7044 111.017 78.7062C110.935 78.7124 110.853 78.6861 110.791 78.633C110.728 78.5799 110.688 78.5041 110.68 78.4221C110.676 78.3416 110.702 78.2622 110.753 78.1999C110.804 78.1376 110.877 78.0968 110.957 78.0857C111.45 78.0745 111.939 78.1812 112.382 78.3971C112.826 78.613 113.211 78.9317 113.506 79.3267C113.532 79.3585 113.55 79.395 113.561 79.4341C113.573 79.4732 113.576 79.5141 113.571 79.5544C113.566 79.5948 113.553 79.6338 113.533 79.6691C113.513 79.7044 113.486 79.7354 113.454 79.7603C113.42 79.7902 113.379 79.8108 113.334 79.8201Z" fill="#2E353A"/>
<path d="M96.7189 77.8026C99.9036 78.1764 100.233 81.4508 97.0927 88.4556C93.467 86.766 90.2748 81.4881 91.299 79.2305C92.3232 76.9728 93.9006 77.4662 96.7189 77.8026Z" fill="#2E353A"/>
<path d="M93.4544 89.6839C93.8374 90.398 94.3574 91.0297 94.9846 91.5428C95.6119 92.0559 96.3341 92.4404 97.11 92.6742C99.1883 93.2797 100.25 91.4257 99.6967 89.4521C99.1958 87.6729 97.5063 85.2134 95.413 85.475C93.3198 85.7367 92.5124 87.9121 93.4544 89.6839Z" fill="#FFD5BD"/>
<path d="M91.5473 78.693C91.5473 78.693 89.9699 76.6596 93.0424 72.5928C96.1149 68.526 103.621 67.2775 109.377 68.3989C115.133 69.5202 111.709 75.8746 109.654 76.9287L109.908 75.9344C107.707 77.0824 105.285 77.7404 102.806 77.8632L103.942 76.8091C103.942 76.8091 94.9113 79.149 91.5473 78.693Z" fill="#2E353A"/>
<path d="M109.902 89.6299C109.771 90.3983 109.699 91.1755 109.685 91.9548L109.281 92.0146C107.427 92.2613 106.493 91.7605 106.014 91.14C105.787 90.8278 105.636 90.4668 105.573 90.0859C105.542 89.8702 105.542 89.6512 105.573 89.4355C106.785 89.7935 108.06 89.8853 109.311 89.7046C109.655 89.6747 109.902 89.6299 109.902 89.6299Z" fill="#2E353A"/>
<path d="M109.266 89.7046L109.184 90.3924C107.45 90.6167 106.194 90.5419 105.573 90.0859C105.542 89.8702 105.542 89.6512 105.573 89.4355C106.771 89.787 108.03 89.8788 109.266 89.7046Z" fill="white"/>
<path d="M109.281 92.0069C107.427 92.2536 106.492 91.7527 106.014 91.1322C106.716 91.0525 107.428 91.0981 108.114 91.2668C108.571 91.3846 108.979 91.6436 109.281 92.0069Z" fill="#A24E3F"/>
<path d="M98.214 103.653C98.214 103.653 103.611 107.705 106.437 108.639C106.437 108.639 107.768 106.142 107.222 104.079L111.312 106.927C111.771 108.641 111.771 110.446 111.312 112.16L106.437 109.387L101.832 112.751C101.832 112.751 95.0218 110.777 94.6256 106.643L98.214 103.653Z" fill="#FD8421"/>
<path opacity="0.7" d="M98.214 103.653C98.214 103.653 103.611 107.705 106.437 108.639C106.437 108.639 107.768 106.142 107.222 104.079L111.312 106.927C111.771 108.641 111.771 110.446 111.312 112.16L106.437 109.387L101.832 112.751C101.832 112.751 95.0218 110.777 94.6256 106.643L98.214 103.653Z" fill="#2E353A"/>
<path d="M187.305 141.997H112.794C112.311 141.997 111.919 142.388 111.919 142.871V145.062C111.919 145.545 112.311 145.936 112.794 145.936H187.305C187.788 145.936 188.18 145.545 188.18 145.062V142.871C188.18 142.388 187.788 141.997 187.305 141.997Z" fill="#FD8421"/>
<path opacity="0.5" d="M187.92 142.769V144.959C187.92 145.445 187.785 145.834 187.307 145.834H112.788C112.302 145.834 111.667 145.445 111.667 144.959V142.769C111.667 142.29 112.302 142.096 112.788 142.096H187.307C187.785 142.096 187.92 142.29 187.92 142.769Z" fill="white"/>
<path opacity="0.2" d="M143.065 142.769V144.959C143.065 145.445 142.901 145.834 142.422 145.834H112.788C112.302 145.834 111.667 145.445 111.667 144.959V142.769C111.667 142.29 112.302 142.096 112.788 142.096H142.422C142.901 142.096 143.065 142.29 143.065 142.769Z" fill="black"/>
<path d="M70.5505 64.8929C69.9454 62.6999 68.7933 60.6964 67.2023 59.0703C65.6113 57.4441 63.6335 56.2486 61.4541 55.5958C59.2748 54.943 56.9654 54.8542 54.7424 55.3378C52.5194 55.8214 50.4556 56.8615 48.7445 58.3607C47.0333 59.8598 45.7308 61.7689 44.9591 63.9091C44.1874 66.0492 43.9717 68.3502 44.3323 70.5964C44.6929 72.8426 45.6179 74.9605 47.0207 76.7516C48.4235 78.5426 50.2581 79.9481 52.3525 80.8364C53.2527 81.2056 53.9784 81.9038 54.3823 82.7889L54.8389 83.8214L67.7692 80.3096L67.6358 79.1858C67.5428 78.2116 67.8157 77.2377 68.4013 76.4537C69.6065 74.8126 70.4257 72.9208 70.7978 70.919C71.1699 68.9173 71.0854 66.8574 70.5505 64.8929Z" fill="#FD8421"/>
<path d="M59.0632 83.8496C59.0632 83.8496 57.1177 77.7462 53.6832 75.0421L55.5866 74.5223L55.734 71.5935L58.8455 76.0956L58.5926 70.6172L61.6619 75.611L61.971 72.8016L64.6891 72.0992C63.2021 75.4392 62.9361 79.1956 63.9376 82.7118" stroke="white" stroke-linecap="round" stroke-linejoin="round"/>
<path d="M61.5057 82.8241C59.216 83.4492 57.9377 86.083 58.6541 88.7028C59.3705 91.3226 61.8007 92.9169 64.0904 92.3129C66.3801 91.7089 67.6513 89.061 66.9419 86.4412C66.2326 83.8214 63.7954 82.206 61.5057 82.8241Z" fill="#6C4D33"/>
<path d="M65.9174 89.9023L61.31 91.1595C60.2094 91.459 59.0362 91.3316 58.0255 90.8028C57.0148 90.274 56.2412 89.3829 55.8597 88.3079L54.3497 84.0446C54.3194 83.9604 54.307 83.8708 54.3132 83.7815C54.3194 83.6923 54.3441 83.6053 54.3857 83.526C54.4273 83.4468 54.4849 83.3771 54.5549 83.3212C54.6249 83.2654 54.7056 83.2248 54.7921 83.2018L67.4907 79.7392C67.5771 79.7153 67.6675 79.7096 67.7562 79.7226C67.8449 79.7355 67.9299 79.7667 68.0059 79.8143C68.0818 79.8619 68.1471 79.9247 68.1974 79.9988C68.2478 80.073 68.2822 80.1568 68.2984 80.2449L69.1623 84.6768C69.38 85.7964 69.1666 86.957 68.5649 87.926C67.9632 88.895 67.0175 89.6009 65.9174 89.9023Z" fill="#FD8421"/>
<path d="M65.9175 89.9023L61.31 91.1595C60.2094 91.459 59.0362 91.3316 58.0255 90.8028C57.0148 90.274 56.2412 89.3829 55.8597 88.3079L54.3497 84.0446C54.3194 83.9604 54.307 83.8708 54.3132 83.7815C54.3194 83.6923 54.3441 83.6053 54.3857 83.526C54.4273 83.4468 54.4849 83.3771 54.5549 83.3212C54.6249 83.2654 54.7056 83.2248 54.7921 83.2018L67.4907 79.7392C67.5771 79.7153 67.6675 79.7096 67.7562 79.7226C67.8449 79.7355 67.9299 79.7667 68.0059 79.8143C68.0818 79.8619 68.1471 79.9247 68.1974 79.9988C68.2478 80.073 68.2822 80.1568 68.2984 80.2449L69.1623 84.6768C69.38 85.7964 69.1666 86.957 68.5649 87.926C67.9632 88.895 67.0175 89.6009 65.9175 89.9023Z" fill="#6C4D33"/>
<path d="M39.6618 78.3222C38.4035 78.091 37.1273 77.9711 35.848 77.964C35.2119 77.9602 34.5763 77.9954 33.9446 78.0694C33.6285 78.1185 33.3125 78.1537 33.0105 78.2309C32.8559 78.2731 32.7014 78.2941 32.5539 78.3503L32.1114 78.4908L31.6057 78.6523L31.9078 78.2099C32.7596 76.9487 33.4376 75.5785 33.9235 74.1362C34.165 73.4208 34.3413 72.685 34.4503 71.9378C34.5039 71.5677 34.5368 71.1949 34.5486 70.8211C34.5697 70.4491 34.5697 70.0763 34.5486 69.7043C34.5218 69.3361 34.4701 68.97 34.3941 68.6087L34.2606 68.0749L34.0851 67.5481C33.9604 67.2037 33.8077 66.8702 33.6285 66.5508C33.4559 66.2286 33.2611 65.9188 33.0456 65.6236C32.8283 65.329 32.5938 65.0476 32.3432 64.7808L31.9569 64.3875L31.5355 64.0223C31.2616 63.7694 30.9385 63.5728 30.6505 63.3199C30.3626 63.0671 30.0184 62.9266 29.7024 62.7229L29 62.2594L29.7796 61.8871C30.1519 61.7045 30.5452 61.4868 30.9174 61.262C31.2897 61.0373 31.6619 60.8055 32.0272 60.5597C32.7511 60.0662 33.4388 59.5217 34.0851 58.9302C34.4011 58.6352 34.7102 58.3332 35.0122 58.0171C35.3142 57.7011 35.5881 57.3639 35.848 57.0268C36.1078 56.6897 36.3607 56.3245 36.5503 55.9663C36.7772 55.6071 36.9812 55.2342 37.1614 54.8495C37.347 54.4674 37.5065 54.0732 37.639 53.6696L37.8216 53.0655L37.955 52.4404C38.0334 52.0278 38.0803 51.6099 38.0955 51.1902C38.1328 50.3435 38.0572 49.4956 37.8708 48.6688L37.7303 48.0437L37.5336 47.4326C37.4142 47.0182 37.2246 46.6319 37.0701 46.2316C36.9156 45.8313 36.6908 45.459 36.5012 45.0657L35.4968 42.9586L37.4212 44.1948C37.7584 44.4195 38.1236 44.6373 38.5239 44.8409C38.9243 45.0446 39.2965 45.2413 39.6899 45.4169C40.4731 45.7827 41.2803 46.0948 42.106 46.351C42.5203 46.4704 42.9347 46.5828 43.3491 46.6741C43.7637 46.7687 44.1835 46.8391 44.6063 46.8848C45.0232 46.9383 45.4432 46.9641 45.8636 46.9621C46.2793 46.9589 46.6944 46.9308 47.1067 46.8778L47.7108 46.7724L48.3078 46.6109C48.6933 46.4843 49.0689 46.3294 49.4315 46.1473C49.6124 46.0604 49.7862 45.9594 49.9513 45.8453C50.1274 45.7429 50.2942 45.6254 50.4499 45.4941C50.7722 45.2433 51.0772 44.9711 51.363 44.6794C51.6439 44.3763 51.9043 44.0548 52.1426 43.7172C52.3903 43.3778 52.6133 43.021 52.8099 42.6496C53.0276 42.2914 53.1751 41.884 53.3647 41.5048C53.5543 41.1255 53.6667 40.7041 53.8212 40.3037L54.6992 38L55.1347 40.4021C55.2082 40.7949 55.3091 41.1822 55.4367 41.5609C55.807 42.7356 56.372 43.8396 57.1083 44.8269C57.5937 45.4716 58.1683 46.0439 58.815 46.5266C59.1337 46.7695 59.472 46.9857 59.8264 47.1728C60.1806 47.3652 60.5493 47.5295 60.9291 47.6644C61.3102 47.7975 61.6997 47.9055 62.095 47.9875C62.4962 48.0682 62.902 48.1245 63.3101 48.1561C63.7195 48.1772 64.1298 48.1772 64.5392 48.1561C64.9536 48.1561 65.368 48.0999 65.7824 48.0648C66.1968 48.0296 66.6111 47.9313 67.0185 47.8681L68.2476 47.5731L69.4627 47.2079L70.6637 46.7794L72.3283 46.1824L71.3731 47.6644C71.1975 47.9243 71.0219 48.2403 70.8604 48.5424C70.6988 48.8444 70.5514 49.1534 70.4109 49.4765C70.1346 50.1063 69.916 50.7598 69.7577 51.429C69.6006 52.0894 69.5228 52.7661 69.5259 53.4448C69.5334 54.1101 69.6497 54.7696 69.8701 55.3973L70.0597 55.8609L70.2985 56.3736C70.4703 56.6584 70.6653 56.9286 70.8815 57.1813C71.0982 57.4322 71.333 57.6669 71.5838 57.8837C71.8438 58.1097 72.1183 58.3185 72.4056 58.5088C72.6904 58.7031 72.9858 58.8813 73.2905 59.0426C73.5925 59.2111 73.9156 59.3376 74.2317 59.4921L75.215 59.8643L76.2264 60.1804L76.9287 60.4051L76.3388 60.8617C75.9415 61.1701 75.5682 61.5082 75.222 61.8731C74.8723 62.2388 74.5485 62.6284 74.2528 63.039C74.0912 63.2427 73.9648 63.4604 73.8243 63.6711C73.689 63.8834 73.567 64.1039 73.4591 64.3313C73.3357 64.5559 73.2323 64.7909 73.1501 65.0337C73.0526 65.2606 72.9751 65.4956 72.9183 65.736C72.8691 65.9818 72.7848 66.2206 72.7567 66.4384L72.6865 67.1899C72.6865 67.4427 72.6865 67.6956 72.7287 67.9484C72.7428 68.2006 72.7852 68.4503 72.8551 68.6929C72.901 68.9321 72.9668 69.167 73.0517 69.3953L73.3397 70.0976C73.4365 70.3426 73.5564 70.5778 73.6979 70.8L74.0912 71.5024L74.2387 71.7482H73.9648C72.9261 71.7509 71.8921 71.8878 70.8885 72.1555C70.3859 72.2887 69.9003 72.4796 69.4416 72.7245C69.3276 72.7856 69.2174 72.8537 69.1115 72.9281C68.9974 72.9926 68.8913 73.0704 68.7955 73.1599C68.6908 73.2366 68.5922 73.3211 68.5005 73.4128L68.2266 73.7007L68.4864 73.3987C68.5714 73.2989 68.6654 73.2072 68.7674 73.1248C68.8625 73.0313 68.9659 72.9467 69.0764 72.8719C69.1818 72.8017 69.2871 72.7174 69.3995 72.6542C69.8537 72.382 70.3366 72.1606 70.8393 71.994C71.8505 71.6655 72.9023 71.4788 73.9648 71.4391L73.8454 71.685L73.4099 70.9826C73.2519 70.7622 73.1154 70.5269 73.0026 70.2803L72.6725 69.5779C72.5677 69.3289 72.4877 69.0701 72.4337 68.8053C72.346 68.5484 72.2894 68.282 72.2651 68.0117C72.2651 67.7448 72.2019 67.4708 72.1949 67.2039V66.3822C72.1949 66.1153 72.2932 65.8484 72.3353 65.5815C72.3888 65.3136 72.464 65.0505 72.5601 64.7949C72.6369 64.5332 72.738 64.2792 72.8621 64.0363C72.9677 63.7942 73.0898 63.5595 73.2273 63.334C73.3551 63.0925 73.4958 62.858 73.6487 62.6316C73.9517 62.1836 74.2874 61.7587 74.6531 61.3603C75.0193 60.9536 75.4161 60.5756 75.8401 60.2296L75.9735 60.9319L74.913 60.6299L73.8665 60.2576C73.5223 60.1102 73.1641 59.9767 72.841 59.8011C72.5043 59.6368 72.1782 59.4515 71.8648 59.2463C71.5435 59.0446 71.2362 58.8217 70.9447 58.579C70.656 58.3349 70.3882 58.067 70.144 57.7783C69.8821 57.4889 69.647 57.1762 69.4416 56.8442L69.1537 56.3385L68.9219 55.7977C68.6515 55.0826 68.4997 54.3282 68.4724 53.5642C68.4447 52.7978 68.5131 52.0309 68.6761 51.2815C68.832 50.5447 69.0529 49.8231 69.3363 49.1253C69.4768 48.7741 69.6313 48.423 69.7998 48.0999C69.9684 47.7768 70.144 47.4397 70.3617 47.0955L71.0641 47.9805L69.8139 48.437L68.5426 48.8303C68.1072 48.9497 67.6717 49.0481 67.2362 49.1534C66.8008 49.2588 66.3583 49.322 65.9088 49.3711C65.4593 49.4333 65.0068 49.4708 64.5532 49.4835C64.0854 49.5093 63.6164 49.5093 63.1485 49.4835C62.6911 49.4503 62.236 49.3893 61.786 49.3009C61.3318 49.2096 60.8837 49.0899 60.4445 48.9427C60.0064 48.7867 59.5793 48.6013 59.1662 48.3878C58.751 48.1722 58.354 47.9233 57.9792 47.6433C57.2303 47.0918 56.5634 46.4367 55.9985 45.6978C55.4378 44.9701 54.9662 44.1778 54.5938 43.3379C54.404 42.9214 54.2375 42.4946 54.0952 42.0596C53.9436 41.6164 53.8216 41.1635 53.7299 40.7041L55.0433 40.8024C54.8818 41.2379 54.7343 41.6803 54.5587 42.1088C54.3787 42.5424 54.1771 42.9667 53.9547 43.38C53.7498 43.8013 53.5151 44.2073 53.2523 44.5951C52.977 44.9885 52.6767 45.3639 52.3533 45.7189C52.018 46.0691 51.6564 46.3931 51.2717 46.6881C51.0821 46.8406 50.8801 46.9769 50.6677 47.0955C50.465 47.2307 50.2539 47.3527 50.0355 47.4607C49.5986 47.6781 49.1453 47.8613 48.68 48.0086L47.9776 48.1842L47.2753 48.3106C46.8095 48.3698 46.3401 48.3957 45.8706 48.3878C45.4008 48.3888 44.9315 48.3583 44.4659 48.2965C43.9935 48.2405 43.5245 48.1584 43.0612 48.0507C42.6046 47.9524 42.1551 47.826 41.7126 47.6855C40.8328 47.41 39.9737 47.0721 39.142 46.6741C38.7206 46.4845 38.3132 46.2737 37.9129 46.056C37.5126 45.8383 37.1192 45.6065 36.7048 45.3537L37.6249 44.5179C37.8286 44.9393 38.0463 45.3466 38.229 45.7821C38.417 46.2113 38.5834 46.6497 38.7276 47.0955L38.9383 47.7979L39.0929 48.5002C39.1874 48.9645 39.2577 49.4334 39.3036 49.9049C39.3309 50.3728 39.3309 50.8418 39.3036 51.3096C39.2822 51.7814 39.2259 52.2509 39.135 52.7143L38.9805 53.4167L38.7698 54.1191C38.6163 54.5707 38.4333 55.0118 38.2219 55.4395C38.017 55.8652 37.7823 56.2759 37.5196 56.6686C37.2625 57.0525 36.9859 57.4229 36.6908 57.7783C36.3888 58.1436 36.0797 58.4807 35.7567 58.8248C35.4336 59.169 35.0894 59.471 34.7453 59.78C34.0449 60.3826 33.3058 60.9386 32.5329 61.4446C32.1442 61.6975 31.7509 61.9316 31.3529 62.147C30.9455 62.3717 30.5452 62.5824 30.1027 62.7791L30.1519 61.9433C30.482 62.1681 30.8542 62.3717 31.1492 62.6035C31.4442 62.8353 31.7954 63.0741 32.0833 63.355L32.5329 63.7624L32.9472 64.1979C33.2174 64.4972 33.4706 64.8114 33.7058 65.139C33.9382 65.4729 34.1471 65.8226 34.3309 66.1855C34.5174 66.5431 34.677 66.914 34.8085 67.2952L34.9841 67.8782L35.1105 68.4682C35.185 68.8648 35.2319 69.2661 35.251 69.6692C35.3008 71.2608 35.0235 72.8457 34.4362 74.3258C33.8766 75.7917 33.1231 77.176 32.1957 78.4416L31.992 78.1607L32.4626 78.0272C32.6242 77.9781 32.7857 77.957 32.9472 77.9219C33.2633 77.8517 33.5864 77.8306 33.9095 77.7884C34.5551 77.7499 35.2024 77.7499 35.848 77.7884C37.1322 77.8565 38.4082 78.0351 39.6618 78.3222Z" fill="#FD8421"/>
<path opacity="0.8" d="M39.6618 78.3222C38.4035 78.091 37.1273 77.9711 35.848 77.964C35.2119 77.9602 34.5763 77.9954 33.9446 78.0694C33.6285 78.1185 33.3125 78.1537 33.0105 78.2309C32.8559 78.2731 32.7014 78.2941 32.5539 78.3503L32.1114 78.4908L31.6057 78.6523L31.9078 78.2099C32.7596 76.9487 33.4376 75.5785 33.9235 74.1362C34.165 73.4208 34.3413 72.685 34.4503 71.9378C34.5039 71.5677 34.5368 71.1949 34.5486 70.8211C34.5697 70.4491 34.5697 70.0763 34.5486 69.7043C34.5218 69.3361 34.4701 68.97 34.3941 68.6087L34.2606 68.0749L34.0851 67.5481C33.9604 67.2037 33.8077 66.8702 33.6285 66.5508C33.4559 66.2286 33.2611 65.9188 33.0456 65.6236C32.8283 65.329 32.5938 65.0476 32.3432 64.7808L31.9569 64.3875L31.5355 64.0223C31.2616 63.7694 30.9385 63.5728 30.6505 63.3199C30.3626 63.0671 30.0184 62.9266 29.7024 62.7229L29 62.2594L29.7796 61.8871C30.1519 61.7045 30.5452 61.4868 30.9174 61.262C31.2897 61.0373 31.6619 60.8055 32.0272 60.5597C32.7511 60.0662 33.4388 59.5217 34.0851 58.9302C34.4011 58.6352 34.7102 58.3332 35.0122 58.0171C35.3142 57.7011 35.5881 57.3639 35.848 57.0268C36.1078 56.6897 36.3607 56.3245 36.5503 55.9663C36.7772 55.6071 36.9812 55.2342 37.1614 54.8495C37.347 54.4674 37.5065 54.0732 37.639 53.6696L37.8216 53.0655L37.955 52.4404C38.0334 52.0278 38.0803 51.6099 38.0955 51.1902C38.1328 50.3435 38.0572 49.4956 37.8708 48.6688L37.7303 48.0437L37.5336 47.4326C37.4142 47.0182 37.2246 46.6319 37.0701 46.2316C36.9156 45.8313 36.6908 45.459 36.5012 45.0657L35.4968 42.9586L37.4212 44.1948C37.7584 44.4195 38.1236 44.6373 38.5239 44.8409C38.9243 45.0446 39.2965 45.2413 39.6899 45.4169C40.4731 45.7827 41.2803 46.0948 42.106 46.351C42.5203 46.4704 42.9347 46.5828 43.3491 46.6741C43.7637 46.7687 44.1835 46.8391 44.6063 46.8848C45.0232 46.9383 45.4432 46.9641 45.8636 46.9621C46.2793 46.9589 46.6944 46.9308 47.1067 46.8778L47.7108 46.7724L48.3078 46.6109C48.6933 46.4843 49.0689 46.3294 49.4315 46.1473C49.6124 46.0604 49.7862 45.9594 49.9513 45.8453C50.1274 45.7429 50.2942 45.6254 50.4499 45.4941C50.7722 45.2433 51.0772 44.9711 51.363 44.6794C51.6439 44.3763 51.9043 44.0548 52.1426 43.7172C52.3903 43.3778 52.6133 43.021 52.8099 42.6496C53.0276 42.2914 53.1751 41.884 53.3647 41.5048C53.5543 41.1255 53.6667 40.7041 53.8212 40.3037L54.6992 38L55.1347 40.4021C55.2082 40.7949 55.3091 41.1822 55.4367 41.5609C55.807 42.7356 56.372 43.8396 57.1083 44.8269C57.5937 45.4716 58.1683 46.0439 58.815 46.5266C59.1337 46.7695 59.472 46.9857 59.8264 47.1728C60.1806 47.3652 60.5493 47.5295 60.9291 47.6644C61.3102 47.7975 61.6997 47.9055 62.095 47.9875C62.4962 48.0682 62.902 48.1245 63.3101 48.1561C63.7195 48.1772 64.1298 48.1772 64.5392 48.1561C64.9536 48.1561 65.368 48.0999 65.7824 48.0648C66.1968 48.0296 66.6111 47.9313 67.0185 47.8681L68.2476 47.5731L69.4627 47.2079L70.6637 46.7794L72.3283 46.1824L71.3731 47.6644C71.1975 47.9243 71.0219 48.2403 70.8604 48.5424C70.6988 48.8444 70.5514 49.1534 70.4109 49.4765C70.1346 50.1063 69.916 50.7598 69.7577 51.429C69.6006 52.0894 69.5228 52.7661 69.5259 53.4448C69.5334 54.1101 69.6497 54.7696 69.8701 55.3973L70.0597 55.8609L70.2985 56.3736C70.4703 56.6584 70.6653 56.9286 70.8815 57.1813C71.0982 57.4322 71.333 57.6669 71.5838 57.8837C71.8438 58.1097 72.1183 58.3185 72.4056 58.5088C72.6904 58.7031 72.9858 58.8813 73.2905 59.0426C73.5925 59.2111 73.9156 59.3376 74.2317 59.4921L75.215 59.8643L76.2264 60.1804L76.9287 60.4051L76.3388 60.8617C75.9415 61.1701 75.5682 61.5082 75.222 61.8731C74.8723 62.2388 74.5485 62.6284 74.2528 63.039C74.0912 63.2427 73.9648 63.4604 73.8243 63.6711C73.689 63.8834 73.567 64.1039 73.4591 64.3313C73.3357 64.5559 73.2323 64.7909 73.1501 65.0337C73.0526 65.2606 72.9751 65.4956 72.9183 65.736C72.8691 65.9818 72.7848 66.2206 72.7567 66.4384L72.6865 67.1899C72.6865 67.4427 72.6865 67.6956 72.7287 67.9484C72.7428 68.2006 72.7852 68.4503 72.8551 68.6929C72.901 68.9321 72.9668 69.167 73.0517 69.3953L73.3397 70.0976C73.4365 70.3426 73.5564 70.5778 73.6979 70.8L74.0912 71.5024L74.2387 71.7482H73.9648C72.9261 71.7509 71.8921 71.8878 70.8885 72.1555C70.3859 72.2887 69.9003 72.4796 69.4416 72.7245C69.3276 72.7856 69.2174 72.8537 69.1115 72.9281C68.9974 72.9926 68.8913 73.0704 68.7955 73.1599C68.6908 73.2366 68.5922 73.3211 68.5005 73.4128L68.2266 73.7007L68.4864 73.3987C68.5714 73.2989 68.6654 73.2072 68.7674 73.1248C68.8625 73.0313 68.9659 72.9467 69.0764 72.8719C69.1818 72.8017 69.2871 72.7174 69.3995 72.6542C69.8537 72.382 70.3366 72.1606 70.8393 71.994C71.8505 71.6655 72.9023 71.4788 73.9648 71.4391L73.8454 71.685L73.4099 70.9826C73.2519 70.7622 73.1154 70.5269 73.0026 70.2803L72.6725 69.5779C72.5677 69.3289 72.4877 69.0701 72.4337 68.8053C72.346 68.5484 72.2894 68.282 72.2651 68.0117C72.2651 67.7448 72.2019 67.4708 72.1949 67.2039V66.3822C72.1949 66.1153 72.2932 65.8484 72.3353 65.5815C72.3888 65.3136 72.464 65.0505 72.5601 64.7949C72.6369 64.5332 72.738 64.2792 72.8621 64.0363C72.9677 63.7942 73.0898 63.5595 73.2273 63.334C73.3551 63.0925 73.4958 62.858 73.6487 62.6316C73.9517 62.1836 74.2874 61.7587 74.6531 61.3603C75.0193 60.9536 75.4161 60.5756 75.8401 60.2296L75.9735 60.9319L74.913 60.6299L73.8665 60.2576C73.5223 60.1102 73.1641 59.9767 72.841 59.8011C72.5043 59.6368 72.1782 59.4515 71.8648 59.2463C71.5435 59.0446 71.2362 58.8217 70.9447 58.579C70.656 58.3349 70.3882 58.067 70.144 57.7783C69.8821 57.4889 69.647 57.1762 69.4416 56.8442L69.1537 56.3385L68.9219 55.7977C68.6515 55.0826 68.4997 54.3282 68.4724 53.5642C68.4447 52.7978 68.5131 52.0309 68.6761 51.2815C68.832 50.5447 69.0529 49.8231 69.3363 49.1253C69.4768 48.7741 69.6313 48.423 69.7998 48.0999C69.9684 47.7768 70.144 47.4397 70.3617 47.0955L71.0641 47.9805L69.8139 48.437L68.5426 48.8303C68.1072 48.9497 67.6717 49.0481 67.2362 49.1534C66.8008 49.2588 66.3583 49.322 65.9088 49.3711C65.4593 49.4333 65.0068 49.4708 64.5532 49.4835C64.0854 49.5093 63.6164 49.5093 63.1485 49.4835C62.6911 49.4503 62.236 49.3893 61.786 49.3009C61.3318 49.2096 60.8837 49.0899 60.4445 48.9427C60.0064 48.7867 59.5793 48.6013 59.1662 48.3878C58.751 48.1722 58.354 47.9233 57.9792 47.6433C57.2303 47.0918 56.5634 46.4367 55.9985 45.6978C55.4378 44.9701 54.9662 44.1778 54.5938 43.3379C54.404 42.9214 54.2375 42.4946 54.0952 42.0596C53.9436 41.6164 53.8216 41.1635 53.7299 40.7041L55.0433 40.8024C54.8818 41.2379 54.7343 41.6803 54.5587 42.1088C54.3787 42.5424 54.1771 42.9667 53.9547 43.38C53.7498 43.8013 53.5151 44.2073 53.2523 44.5951C52.977 44.9885 52.6767 45.3639 52.3533 45.7189C52.018 46.0691 51.6564 46.3931 51.2717 46.6881C51.0821 46.8406 50.8801 46.9769 50.6677 47.0955C50.465 47.2307 50.2539 47.3527 50.0355 47.4607C49.5986 47.6781 49.1453 47.8613 48.68 48.0086L47.9776 48.1842L47.2753 48.3106C46.8095 48.3698 46.3401 48.3957 45.8706 48.3878C45.4008 48.3888 44.9315 48.3583 44.4659 48.2965C43.9935 48.2405 43.5245 48.1584 43.0612 48.0507C42.6046 47.9524 42.1551 47.826 41.7126 47.6855C40.8328 47.41 39.9737 47.0721 39.142 46.6741C38.7206 46.4845 38.3132 46.2737 37.9129 46.056C37.5126 45.8383 37.1192 45.6065 36.7048 45.3537L37.6249 44.5179C37.8286 44.9393 38.0463 45.3466 38.229 45.7821C38.417 46.2113 38.5834 46.6497 38.7276 47.0955L38.9383 47.7979L39.0929 48.5002C39.1874 48.9645 39.2577 49.4334 39.3036 49.9049C39.3309 50.3728 39.3309 50.8418 39.3036 51.3096C39.2822 51.7814 39.2259 52.2509 39.135 52.7143L38.9805 53.4167L38.7698 54.1191C38.6163 54.5707 38.4333 55.0118 38.2219 55.4395C38.017 55.8652 37.7823 56.2759 37.5196 56.6686C37.2625 57.0525 36.9859 57.4229 36.6908 57.7783C36.3888 58.1436 36.0797 58.4807 35.7567 58.8248C35.4336 59.169 35.0894 59.471 34.7453 59.78C34.0449 60.3826 33.3058 60.9386 32.5329 61.4446C32.1442 61.6975 31.7509 61.9316 31.3529 62.147C30.9455 62.3717 30.5452 62.5824 30.1027 62.7791L30.1519 61.9433C30.482 62.1681 30.8542 62.3717 31.1492 62.6035C31.4442 62.8353 31.7954 63.0741 32.0833 63.355L32.5329 63.7624L32.9472 64.1979C33.2174 64.4972 33.4706 64.8114 33.7058 65.139C33.9382 65.4729 34.1471 65.8226 34.3309 66.1855C34.5174 66.5431 34.677 66.914 34.8085 67.2952L34.9841 67.8782L35.1105 68.4682C35.185 68.8648 35.2319 69.2661 35.251 69.6692C35.3008 71.2608 35.0235 72.8457 34.4362 74.3258C33.8766 75.7917 33.1231 77.176 32.1957 78.4416L31.992 78.1607L32.4626 78.0272C32.6242 77.9781 32.7857 77.957 32.9472 77.9219C33.2633 77.8517 33.5864 77.8306 33.9095 77.7884C34.5551 77.7499 35.2024 77.7499 35.848 77.7884C37.1322 77.8565 38.4082 78.0351 39.6618 78.3222Z" fill="white"/>
<path d="M194.942 59H209.43V54.6787H200.318V50.4014H208.888V46.3584H200.318V42.1836H209.43V37.8623H194.942V59ZM211.1 59H216.476L219.054 53.7412H219.156L221.778 59H227.389L222.628 50.958L227.403 43.0479H221.808L219.449 48.1455H219.347L216.974 43.0479H211.114L215.875 51.0752L211.1 59ZM233.512 59.2197C235.592 59.2197 237.174 58.3115 238.082 56.7441H238.185V59H243.37V48.1162C243.37 44.8789 240.543 42.7109 236.251 42.7109C231.812 42.7109 229.161 44.835 228.912 47.9404L228.897 48.1309H233.57L233.6 47.9844C233.775 47.1641 234.596 46.5195 235.987 46.5195C237.438 46.5195 238.185 47.2373 238.185 48.3945V49.1855L234.552 49.4199C230.436 49.6982 228.121 51.3828 228.121 54.3857V54.4004C228.121 57.1836 230.304 59.2197 233.512 59.2197ZM233.219 54.0635V54.0488C233.219 53.0967 233.937 52.4961 235.387 52.4082L238.185 52.2178V53.2871C238.185 54.6348 236.998 55.6309 235.328 55.6309C234.054 55.6309 233.219 55.0596 233.219 54.0635ZM245.86 59H251.061V49.5664C251.061 47.9844 251.969 46.9443 253.375 46.9443C254.796 46.9443 255.587 47.8232 255.587 49.4346V59H260.553V49.5371C260.553 47.9551 261.432 46.9443 262.838 46.9443C264.303 46.9443 265.079 47.8086 265.079 49.4785V59H270.279V48.1455C270.279 44.9082 268.155 42.7109 265.035 42.7109C262.662 42.7109 260.729 44.0586 260.113 46.124H260.011C259.557 43.9561 257.931 42.7109 255.66 42.7109C253.478 42.7109 251.778 43.9707 251.163 45.9189H251.061V43.0479H245.86V59ZM275.362 41.334C276.871 41.334 278.014 40.1621 278.014 38.7705C278.014 37.3789 276.871 36.2217 275.362 36.2217C273.868 36.2217 272.711 37.3789 272.711 38.7705C272.711 40.1621 273.868 41.334 275.362 41.334ZM272.77 59H277.955V43.0479H272.77V59ZM280.489 59H285.689V49.9473C285.689 48.1748 286.715 46.9443 288.37 46.9443C290.069 46.9443 290.934 48.0137 290.934 49.8447V59H296.119V48.7314C296.119 44.9521 294.142 42.7109 290.641 42.7109C288.224 42.7109 286.583 43.8535 285.792 45.8604H285.689V43.0479H280.489V59ZM303.355 59.2197C305.436 59.2197 307.018 58.3115 307.926 56.7441H308.028V59H313.214V48.1162C313.214 44.8789 310.387 42.7109 306.095 42.7109C301.656 42.7109 299.005 44.835 298.756 47.9404L298.741 48.1309H303.414L303.443 47.9844C303.619 47.1641 304.439 46.5195 305.831 46.5195C307.281 46.5195 308.028 47.2373 308.028 48.3945V49.1855L304.396 49.4199C300.279 49.6982 297.965 51.3828 297.965 54.3857V54.4004C297.965 57.1836 300.147 59.2197 303.355 59.2197ZM303.062 54.0635V54.0488C303.062 53.0967 303.78 52.4961 305.23 52.4082L308.028 52.2178V53.2871C308.028 54.6348 306.842 55.6309 305.172 55.6309C303.897 55.6309 303.062 55.0596 303.062 54.0635ZM322.633 59.3369C323.717 59.3369 324.493 59.249 325.064 59.1465V55.4551C324.771 55.499 324.508 55.5283 324.098 55.5283C322.823 55.5283 322.208 55.0156 322.208 53.6387V46.8564H325.064V43.0479H322.208V39.3711H317.008V43.0479H314.84V46.8564H317.008V54.3418C317.008 57.9453 318.766 59.3369 322.633 59.3369ZM329.854 41.334C331.363 41.334 332.506 40.1621 332.506 38.7705C332.506 37.3789 331.363 36.2217 329.854 36.2217C328.36 36.2217 327.203 37.3789 327.203 38.7705C327.203 40.1621 328.36 41.334 329.854 41.334ZM327.262 59H332.447V43.0479H327.262V59ZM342.657 59.3369C347.682 59.3369 350.816 56.3047 350.816 51.0312V51.002C350.816 45.8018 347.623 42.7109 342.657 42.7109C337.706 42.7109 334.498 45.8311 334.498 51.002V51.0312C334.498 56.29 337.604 59.3369 342.657 59.3369ZM342.672 55.3965C340.87 55.3965 339.771 53.8438 339.771 51.0312V51.002C339.771 48.248 340.899 46.6514 342.657 46.6514C344.415 46.6514 345.558 48.248 345.558 51.002V51.0312C345.558 53.8291 344.444 55.3965 342.672 55.3965ZM352.823 59H358.023V49.9473C358.023 48.1748 359.049 46.9443 360.704 46.9443C362.403 46.9443 363.268 48.0137 363.268 49.8447V59H368.453V48.7314C368.453 44.9521 366.476 42.7109 362.975 42.7109C360.558 42.7109 358.917 43.8535 358.126 45.8604H358.023V43.0479H352.823V59Z" fill="white"/>
<path opacity="0.1" d="M390 190C390 195.523 385.523 200 380 200L354.866 200C335.556 200 320 184.444 320 165.134L320 140C320 134.477 324.477 130 330 130L355.134 130C374.444 130 390 145.556 390 164.866L390 190Z" fill="white"/>
<path opacity="0.2" d="M390 190C390 195.523 385.523 200 380 200L363.9 200C349.556 200 338 188.444 338 174.1L338 158C338 152.477 342.477 148 348 148L364.1 148C378.444 148 390 159.556 390 173.9L390 190Z" fill="white"/>
</g>
<defs>
<clipPath id="clip0">
<rect width="390" height="200" fill="white"/>
</clipPath>
</defs>
</svg>
