<svg width="119" height="40" viewBox="0 0 119 40" fill="none" xmlns="http://www.w3.org/2000/svg">
<path d="M50.5502 20.3058C50.5502 25.8019 46.1874 29.8519 40.8332 29.8519C35.479 29.8519 31.1161 25.8019 31.1161 20.3058C31.1161 14.771 35.479 10.7598 40.8332 10.7598C46.1874 10.7598 50.5502 14.771 50.5502 20.3058ZM46.2965 20.3058C46.2965 16.8713 43.7679 14.5214 40.8332 14.5214C37.8984 14.5214 35.3698 16.8713 35.3698 20.3058C35.3698 23.7059 37.8984 26.0903 40.8332 26.0903C43.7679 26.0903 46.2965 23.7016 46.2965 20.3058Z" fill="#EA4335"/>
<path d="M71.5128 20.3058C71.5128 25.8019 67.1499 29.8519 61.7958 29.8519C56.4416 29.8519 52.0787 25.8019 52.0787 20.3058C52.0787 14.7753 56.4416 10.7598 61.7958 10.7598C67.1499 10.7598 71.5128 14.771 71.5128 20.3058ZM67.2591 20.3058C67.2591 16.8713 64.7305 14.5214 61.7958 14.5214C58.861 14.5214 56.3324 16.8713 56.3324 20.3058C56.3324 23.7059 58.861 26.0903 61.7958 26.0903C64.7305 26.0903 67.2591 23.7016 67.2591 20.3058Z" fill="#FBBC05"/>
<path d="M91.602 11.3365V28.4747C91.602 35.5245 87.3832 38.4038 82.3959 38.4038C77.7011 38.4038 74.8756 35.3093 73.81 32.7786L77.5133 31.2593C78.1728 32.813 79.7887 34.6465 82.3915 34.6465C85.5839 34.6465 87.5623 32.7054 87.5623 29.0514V27.6784H87.4138C86.4618 28.8362 84.6275 29.8476 82.3129 29.8476C77.4697 29.8476 73.0326 25.69 73.0326 20.3403C73.0326 14.9518 77.4697 10.7598 82.3129 10.7598C84.6232 10.7598 86.4574 11.7712 87.4138 12.8945H87.5623V11.3408H91.602V11.3365ZM87.8636 20.3403C87.8636 16.9789 85.5883 14.5214 82.6929 14.5214C79.7581 14.5214 77.2994 16.9789 77.2994 20.3403C77.2994 23.6672 79.7581 26.0903 82.6929 26.0903C85.5883 26.0903 87.8636 23.6672 87.8636 20.3403Z" fill="#4285F4"/>
<path d="M98.2619 1.29114V29.2665H94.113V1.29114H98.2619Z" fill="#34A853"/>
<path d="M114.429 23.4477L117.731 25.6169C116.665 27.1706 114.098 29.8476 109.66 29.8476C104.158 29.8476 100.048 25.6556 100.048 20.3016C100.048 14.6247 104.193 10.7555 109.184 10.7555C114.211 10.7555 116.67 14.6979 117.473 16.8283L117.915 17.9129L104.966 23.1981C105.957 25.1133 107.499 26.0903 109.66 26.0903C111.827 26.0903 113.329 25.0402 114.429 23.4477ZM104.267 20.0132L112.923 16.4711C112.447 15.2789 111.014 14.4482 109.329 14.4482C107.167 14.4482 104.158 16.3291 104.267 20.0132Z" fill="#EA4335"/>
<path d="M15.4114 17.8219V13.7719H29.2598C29.3952 14.4777 29.4651 15.3127 29.4651 16.2165C29.4651 19.2551 28.6222 23.0124 25.9058 25.6894C23.2637 28.4009 19.8878 29.847 15.4158 29.847C7.12685 29.847 0.156799 23.1931 0.156799 15.0243C0.156799 6.8555 7.12685 0.20166 15.4158 0.20166C20.0014 0.20166 23.268 1.97487 25.7224 4.28607L22.8226 7.14387C21.0626 5.51699 18.6781 4.25164 15.4114 4.25164C9.35849 4.25164 4.62445 9.0591 4.62445 15.0243C4.62445 20.9895 9.35849 25.797 15.4114 25.797C19.3375 25.797 21.5736 24.2433 23.006 22.8316C24.1677 21.6868 24.9319 20.0513 25.2333 17.8176L15.4114 17.8219Z" fill="#4285F4"/>
</svg>
