<svg width="390" height="200" viewBox="0 0 390 200" fill="none" xmlns="http://www.w3.org/2000/svg">
<g clip-path="url(#clip0)">
<rect opacity="0.9" width="390" height="200" rx="10" fill="#1B9CFC"/>
<path d="M261.885 59H267.246V46.666H267.349L275.845 59H280.356V37.8623H274.995V50.0645H274.893L266.44 37.8623H261.885V59ZM290.889 59.3369C295.913 59.3369 299.048 56.3047 299.048 51.0312V51.002C299.048 45.8018 295.854 42.7109 290.889 42.7109C285.938 42.7109 282.729 45.8311 282.729 51.002V51.0312C282.729 56.29 285.835 59.3369 290.889 59.3369ZM290.903 55.3965C289.102 55.3965 288.003 53.8438 288.003 51.0312V51.002C288.003 48.248 289.131 46.6514 290.889 46.6514C292.646 46.6514 293.789 48.248 293.789 51.002V51.0312C293.789 53.8291 292.676 55.3965 290.903 55.3965ZM307.983 59.3369C309.067 59.3369 309.844 59.249 310.415 59.1465V55.4551C310.122 55.499 309.858 55.5283 309.448 55.5283C308.174 55.5283 307.559 55.0156 307.559 53.6387V46.8564H310.415V43.0479H307.559V39.3711H302.358V43.0479H300.19V46.8564H302.358V54.3418C302.358 57.9453 304.116 59.3369 307.983 59.3369ZM315.205 41.334C316.714 41.334 317.856 40.1621 317.856 38.7705C317.856 37.3789 316.714 36.2217 315.205 36.2217C313.711 36.2217 312.554 37.3789 312.554 38.7705C312.554 40.1621 313.711 41.334 315.205 41.334ZM312.612 59H317.798V43.0479H312.612V59ZM327.964 59.3369C332.563 59.3369 335.361 56.5537 335.464 52.8477V52.7451H330.703L330.674 52.8916C330.469 54.415 329.546 55.3965 328.022 55.3965C326.177 55.3965 325.122 53.8438 325.122 51.0312V51.0166C325.122 48.248 326.206 46.6514 328.008 46.6514C329.531 46.6514 330.469 47.6768 330.674 49.1562L330.688 49.3027H335.464L335.449 49.2002C335.376 45.4062 332.417 42.7109 327.92 42.7109C322.954 42.7109 319.849 45.8604 319.849 51.002V51.0166C319.849 56.1875 322.939 59.3369 327.964 59.3369ZM345 59.3369C350.083 59.3369 352.09 56.3486 352.573 54.1367L352.617 53.9609H347.93L347.915 54.0342C347.681 54.6934 346.772 55.6455 345.103 55.6455C343.213 55.6455 342.041 54.3711 341.982 52.2178H352.705V50.6943C352.705 45.8604 349.644 42.7109 344.824 42.7109C339.976 42.7109 336.899 45.8896 336.899 51.0166V51.0312C336.899 56.1875 339.961 59.3369 345 59.3369ZM344.941 46.4023C346.465 46.4023 347.549 47.3691 347.812 49.1562H342.056C342.319 47.3984 343.418 46.4023 344.941 46.4023ZM361.743 59.3369C366.123 59.3369 369.111 57.2422 369.111 53.9463V53.9316C369.111 51.5439 367.646 50.2256 364.263 49.5518L361.45 48.9951C359.941 48.6875 359.458 48.2773 359.458 47.5889V47.5742C359.458 46.7393 360.278 46.2119 361.553 46.2119C362.988 46.2119 363.794 46.9883 363.911 47.9258L363.926 48.043H368.672L368.657 47.9258C368.613 45.0693 366.167 42.7109 361.553 42.7109C357.188 42.7109 354.463 44.6885 354.463 47.8672V47.8818C354.463 50.3135 356.089 51.9395 359.209 52.54L362.021 53.0967C363.442 53.3896 363.955 53.7852 363.955 54.5029V54.5176C363.955 55.3379 363.12 55.8359 361.743 55.8359C360.22 55.8359 359.399 55.2061 359.15 54.1221L359.121 54.0049H354.082L354.097 54.1367C354.448 57.2422 356.997 59.3369 361.743 59.3369Z" fill="white"/>
<path opacity="0.1" d="M390 190C390 195.523 385.523 200 380 200L354.866 200C335.556 200 320 184.444 320 165.134L320 140C320 134.477 324.477 130 330 130L355.134 130C374.444 130 390 145.556 390 164.866L390 190Z" fill="white"/>
<path opacity="0.2" d="M390 190C390 195.523 385.523 200 380 200L363.9 200C349.556 200 338 188.444 338 174.1L338 158C338 152.477 342.477 148 348 148L364.1 148C378.444 148 390 159.556 390 173.9L390 190Z" fill="white"/>
<path d="M65.214 57.0321H184.969C186.752 57.0321 188.198 58.478 188.198 60.2616V145.674C188.198 147.458 186.752 148.904 184.969 148.904H65.214C63.4304 148.904 61.9846 147.458 61.9846 145.674V60.2616C61.9846 58.478 63.4304 57.0321 65.214 57.0321Z" fill="#263238"/>
<path d="M124.025 52.8726H126.152C126.579 52.8726 126.925 53.2185 126.925 53.6453V233.485C126.925 233.912 126.579 234.258 126.152 234.258H124.025C123.599 234.258 123.253 233.912 123.253 233.485V53.6453C123.253 53.2185 123.599 52.8726 124.025 52.8726Z" fill="#263238"/>
<path d="M64.7432 57.0321H184.498C186.282 57.0321 187.727 58.478 187.727 60.2616V145.674C187.727 147.458 186.282 148.904 184.498 148.904H64.7432C62.9596 148.904 61.5137 147.458 61.5137 145.674V60.2616C61.5137 58.478 62.9596 57.0321 64.7432 57.0321Z" fill="#6F83AF"/>
<path opacity="0.5" d="M64.8136 142.817V63.1232C64.8136 61.5839 66.0614 60.3362 67.6006 60.3362L181.636 60.3362C183.175 60.3362 184.423 61.5839 184.423 63.1232V142.817C184.423 144.356 183.175 145.604 181.636 145.604H67.6006C66.0614 145.604 64.8136 144.356 64.8136 142.817Z" fill="white"/>
<path opacity="0.2" d="M149.63 101.869C157.33 101.149 165.063 100.822 172.797 100.892C172.725 90.3912 171.787 79.0385 170.961 67.8708L148.256 69.3303C149.134 82.3605 150.006 95.4303 149.63 101.869Z" fill="black"/>
<path d="M149.195 101.401C156.896 100.676 164.628 100.35 172.363 100.423C172.29 89.9157 171.808 79.0452 170.982 67.8708L147.815 68.8482C148.68 81.8784 149.552 94.9548 149.195 101.401Z" fill="white"/>
<path opacity="0.2" d="M118.787 124.237L141.948 125.248L142.912 92.22L120.2 91.6851L118.787 124.237Z" fill="black"/>
<path d="M119.75 91.2246L142.915 92.232L141.5 124.78L118.334 123.773L119.75 91.2246Z" fill="white"/>
<path opacity="0.2" d="M67.1511 123.451L90.1405 120.42L85.3458 87.7291L62.8914 91.1501L67.1511 123.451Z" fill="black"/>
<path d="M62.3641 90.7731L85.3521 87.7385L89.6158 120.037L66.6277 123.072L62.3641 90.7731Z" fill="white"/>
<path opacity="0.2" d="M146.184 147.332C150.384 148.653 161.202 148.857 169.299 148.454C170.455 138.284 170.336 126.898 170.045 115.433L147.333 115.057C147.835 122.929 147.445 136.937 146.184 147.332Z" fill="black"/>
<path d="M145.719 146.858C149.926 148.179 160.743 148.377 168.834 147.974C169.981 137.162 170.382 126.283 170.035 115.415L146.868 114.557C147.376 122.456 146.987 136.463 145.719 146.858Z" fill="white"/>
<path opacity="0.2" d="M89.2213 98.5674L112.402 99.0759C113.182 88.2317 112.957 76.8922 112.66 66.0547H89.9346C90.1922 77.5791 90.0205 88.5751 89.2213 98.5674Z" fill="black"/>
<path d="M88.7673 98.0791L111.948 98.5877C112.723 87.7435 112.956 76.8861 112.648 66.0155L89.4674 65.507C89.7183 77.1041 89.5334 88.0935 88.7673 98.0791Z" fill="white"/>
<path d="M57.1371 82.9915C58.8872 85.1907 60.7034 87.555 62.4205 89.8731C64.1376 92.1912 65.7887 94.5885 67.3076 96.9925C68.0671 98.1878 68.7606 99.403 69.4276 100.612L71.2504 104.198L71.4023 104.521C71.4023 104.554 71.4419 104.581 71.4485 104.574C71.4574 104.495 71.4574 104.415 71.4485 104.336C71.4492 104.132 71.4713 103.928 71.5145 103.729C71.5377 103.619 71.5686 103.511 71.607 103.405C71.607 103.339 71.6532 103.273 71.6796 103.207C71.7125 103.114 71.7522 103.023 71.7985 102.936C71.9165 102.715 72.0582 102.506 72.2212 102.315C72.4511 102.055 72.7208 101.832 73.0203 101.655C73.3238 101.479 73.654 101.354 73.9977 101.285C74.2546 101.238 74.5161 101.22 74.777 101.232C75.0736 101.246 75.3659 101.309 75.6422 101.417C75.836 101.484 76.0186 101.58 76.1837 101.701C76.3489 101.827 76.3422 101.847 76.3489 101.86C76.3555 101.873 76.3092 101.86 76.2696 101.86C76.035 101.7 75.8142 101.521 75.6092 101.325C75.3582 101.107 75.1072 100.869 74.8563 100.618C73.8326 99.6342 72.7759 98.5511 71.673 97.5406L68.3379 99.7068C68.8727 101.192 69.5173 102.636 70.2663 104.026C70.6741 104.818 71.1562 105.57 71.7061 106.271C71.8077 106.398 71.9157 106.519 72.0297 106.635C72.2123 106.826 72.4136 106.999 72.6307 107.15C72.8767 107.321 73.1429 107.46 73.4232 107.566C73.7455 107.686 74.0838 107.757 74.427 107.777C74.7102 107.791 74.9939 107.771 75.2724 107.718C75.6401 107.646 75.993 107.512 76.3158 107.321C76.6353 107.135 76.9229 106.899 77.1678 106.621C77.3451 106.418 77.5001 106.197 77.6301 105.961C77.6763 105.862 77.7291 105.756 77.7688 105.657L77.8546 105.426C77.9075 105.254 77.9339 105.149 77.9603 105.03C78.0198 104.739 78.0464 104.442 78.0395 104.145C78.0356 103.879 78.0135 103.615 77.9735 103.352C77.9735 103.161 77.9207 103.009 77.8942 102.864C77.8348 102.573 77.782 102.335 77.7291 102.104C77.5112 101.199 77.28 100.44 77.0159 99.6738C76.7517 98.9077 76.4083 98.1416 76.0715 97.4085C75.411 95.9292 74.6846 94.5027 73.9185 93.129C72.3983 90.4021 70.7361 87.7567 68.9389 85.2039C68.0539 83.9425 67.1425 82.6943 66.2047 81.4725C65.2669 80.2507 64.3159 79.0685 63.2658 77.8401L57.1371 82.9915Z" fill="#F1C3BD"/>
<path d="M54.2623 79.1011C53.1264 84.0344 63.964 96.6683 63.964 96.6683L73.6854 89.549C71.5273 85.4558 68.9368 81.6056 65.9585 78.0642C61.5072 73.0318 55.5105 73.679 54.2623 79.1011Z" fill="#407BFF"/>
<path d="M54.2623 79.1011C53.1264 84.0344 63.964 96.6683 63.964 96.6683L73.6854 89.549C71.5273 85.4558 68.9368 81.6056 65.9585 78.0642C61.5072 73.0318 55.5105 73.679 54.2623 79.1011Z" fill="#9BD3FD"/>
<path d="M30.5438 78.3619C37.4453 98.1218 37.5707 119.52 38.3434 123.812C42.4645 123.264 57.9845 121.171 66.4445 120.028C68.3465 89.6882 60.012 74.6569 60.012 74.6569C60.012 74.6569 58.176 74.4126 55.6928 74.3069C54.9135 74.3069 54.0748 74.2541 53.203 74.2607C52.7209 74.2607 52.2322 74.2607 51.7369 74.2937C47.7264 74.6105 43.7375 75.1574 39.7898 75.9316C39.0435 76.0702 38.284 76.2287 37.5509 76.3939C36.8179 76.559 36.2301 76.7175 35.5697 76.8826C32.7364 77.6024 30.5438 78.3619 30.5438 78.3619Z" fill="#407BFF"/>
<path d="M30.5438 78.3619C37.4453 98.1218 37.5707 119.52 38.3434 123.812C42.4645 123.264 57.9845 121.171 66.4445 120.028C68.3465 89.6882 60.012 74.6569 60.012 74.6569C60.012 74.6569 58.176 74.4126 55.6928 74.3069C54.9135 74.3069 54.0748 74.2541 53.203 74.2607C52.7209 74.2607 52.2322 74.2607 51.7369 74.2937C47.7264 74.6105 43.7375 75.1574 39.7898 75.9316C39.0435 76.0702 38.284 76.2287 37.5509 76.3939C36.8179 76.559 36.2301 76.7175 35.5697 76.8826C32.7364 77.6024 30.5438 78.3619 30.5438 78.3619Z" fill="#9BD3FD"/>
<path d="M37.0025 87.4625C38.1186 90.441 37.2469 98.6897 36.0251 101.503C35.5892 98.5576 35.0542 95.4668 34.3806 92.2968L37.0025 87.4625Z" fill="#4AAFFC"/>
<path d="M71.6252 97.1588L67.4249 93.1962L64.6907 99.391C65.4476 100.166 66.4318 100.68 67.5006 100.858C68.5694 101.037 69.6671 100.87 70.6345 100.382L71.6252 97.1588Z" fill="#F1C3BD"/>
<path d="M64.3365 91.1324L62.2364 96.6139L64.6866 99.3546L67.4207 93.1599L64.3365 91.1324Z" fill="#F1C3BD"/>
<path d="M39.1623 62.2943C40.4369 66.0389 42.1342 72.9799 39.7897 75.9056C42.1606 77.702 45.2184 79.7295 49.8017 79.2738C54.385 78.8181 53.1633 75.7867 51.7367 74.2942C47.3119 73.8517 46.9949 70.6552 47.3383 67.5645L39.1623 62.2943Z" fill="#F1C3BD"/>
<path d="M52.5491 73.2905C52.5491 72.247 48.2564 71.3686 48.0913 72.3593C47.9262 73.3499 49.4121 73.6801 48.9432 75.001C48.4743 76.3218 44.1485 76.4539 42.4182 74.5849C41.2691 73.3367 40.9059 72.0819 39.4463 72.9074C37.9868 73.733 36.2301 74.8887 37.1943 76.7049C38.1585 78.521 43.6004 82.8138 48.5536 81.7109C53.5068 80.608 54.887 77.9465 53.9228 76.7907C53.084 75.8119 52.6 74.5786 52.5491 73.2905Z" fill="#4AAFFC"/>
<path opacity="0.2" d="M42.4963 64.448L47.3372 67.5652C47.2433 68.2832 47.2146 69.0082 47.2513 69.7314C46.2821 69.6914 45.3377 69.4124 44.5024 68.9193C43.667 68.4261 42.9665 67.7341 42.4633 66.9047C41.9085 65.8415 42.0934 64.6329 42.4963 64.448Z" fill="black"/>
<path d="M38.3665 55.6912C38.8354 60.935 38.8487 64.0257 41.5762 66.6476C45.6775 70.6102 52.0902 67.9685 53.1931 62.7247C54.1837 57.9763 53.2459 50.1766 48.055 48.2614C46.9114 47.8258 45.6754 47.69 44.4646 47.867C43.2537 48.0439 42.1083 48.5278 41.1372 49.2724C40.1662 50.0171 39.4018 50.9978 38.9169 52.1213C38.4319 53.2449 38.2424 54.4738 38.3665 55.6912Z" fill="#F1C3BD"/>
<path d="M37.9594 51.4945C41.8163 51.2039 42.1399 57.9006 38.95 60.7801C35.0931 59.2677 29.7041 52.0823 37.9594 51.4945Z" fill="#263238"/>
<path d="M41.7782 52.5393C44.0369 48.973 48.3825 54.6262 50.5289 50.7297C51.8167 48.3852 54.0159 50.9278 55.3566 49.5211C56.6972 48.1144 54.6235 44.3368 53.2234 44C54.0093 44.8519 54.1612 47.8965 51.8035 46.3907C49.4458 44.885 47.7551 43.3264 44.869 45.8558C41.983 48.3852 38.9648 43.2999 36.3165 47.1766C33.9919 50.5448 39.1035 56.7792 41.7782 52.5393Z" fill="#263238"/>
<path d="M37.4107 51.9837C38.0301 51.9814 38.6453 51.8811 39.2335 51.6865C39.2642 51.677 39.2928 51.6614 39.3176 51.6409C39.3424 51.6203 39.3629 51.595 39.378 51.5665C39.393 51.5379 39.4022 51.5067 39.4052 51.4747C39.4082 51.4426 39.4048 51.4102 39.3953 51.3794C39.3857 51.3486 39.3702 51.32 39.3496 51.2952C39.329 51.2704 39.3037 51.2499 39.2752 51.2349C39.2467 51.2199 39.2155 51.2106 39.1834 51.2076C39.1513 51.2047 39.1189 51.2081 39.0882 51.2176C37.3975 51.7525 35.753 51.4686 35.0001 50.5175C34.4124 49.7779 34.4586 48.7608 35.1124 47.6579C35.1457 47.6019 35.1553 47.5349 35.1392 47.4717C35.1231 47.4086 35.0826 47.3544 35.0266 47.3211C34.9705 47.2878 34.9035 47.2782 34.8404 47.2943C34.7772 47.3104 34.723 47.3509 34.6897 47.407C33.9302 48.675 33.9038 49.9232 34.6105 50.8213C34.9593 51.2138 35.3924 51.5222 35.8774 51.7235C36.3623 51.9247 36.8865 52.0137 37.4107 51.9837Z" fill="#263238"/>
<path d="M36.1599 61.5466C36.8986 62.6437 38.04 63.4054 39.3366 63.6666C41.0603 63.9902 41.7735 62.4184 41.1725 60.8664C40.631 59.4729 39.079 57.6237 37.4081 57.9936C35.7373 58.3634 35.2684 60.1862 36.1599 61.5466Z" fill="#F1C3BD"/>
<path d="M85.7541 227.248L77.0893 229.572C77.0893 229.572 68.8406 199.021 66.232 182.682C65.4394 177.723 63.6695 170.854 61.5297 163.53C58.8352 154.284 55.5529 144.325 52.8914 136.525C50.078 128.31 47.9712 122.504 47.9712 122.504L66.4631 120.015C66.4631 120.015 80.5367 163.16 82.1218 179.261C83.753 196.016 85.7541 227.248 85.7541 227.248Z" fill="#263238"/>
<path opacity="0.2" d="M61.5282 163.542C58.8336 154.296 55.5513 144.337 52.8898 136.537L54.5277 132.264C59.5007 137.442 61.832 154.29 61.5282 163.542Z" fill="black"/>
<path d="M56.4798 121.375C56.4798 121.375 57.3912 166.792 56.1496 182.273C54.7826 199.233 42.076 233.892 42.076 233.892H32.3678C32.3678 233.892 38.8465 202.191 40.8278 185.681C43.093 166.925 38.3446 123.799 38.3446 123.799L56.4798 121.375Z" fill="#263238"/>
<path d="M46.3681 56.9381C46.3681 57.3608 46.6125 57.7042 46.8964 57.6976C47.1804 57.691 47.3918 57.3343 47.3786 56.9051C47.3654 56.4758 47.1276 56.139 46.8502 56.1456C46.5728 56.1522 46.3549 56.5088 46.3681 56.9381Z" fill="#263238"/>
<path d="M51.1923 56.7782C51.1923 57.2075 51.4433 57.5443 51.7207 57.5377C51.9981 57.5311 52.216 57.1744 52.2094 56.7518C52.2028 56.3291 51.9584 55.9791 51.681 55.9923C51.4037 56.0055 51.1857 56.3687 51.1923 56.7782Z" fill="#263238"/>
<path d="M49.6691 57.0575C50.2136 58.3493 50.936 59.5585 51.8154 60.6502C51.5297 60.8688 51.1992 61.0218 50.8477 61.0982C50.4961 61.1747 50.1321 61.1728 49.7813 61.0927L49.6691 57.0575Z" fill="#F39492"/>
<path d="M48.0126 62.2878C47.5355 62.2473 47.0718 62.1092 46.6503 61.8819C46.2288 61.6547 45.8586 61.3433 45.5625 60.967C45.5407 60.9437 45.5285 60.913 45.5285 60.8811C45.5285 60.8492 45.5407 60.8185 45.5625 60.7953C45.5762 60.7854 45.5918 60.7783 45.6084 60.7746C45.6249 60.7709 45.642 60.7706 45.6587 60.7737C45.6753 60.7768 45.6912 60.7832 45.7053 60.7926C45.7194 60.802 45.7315 60.8141 45.7408 60.8283C46.0822 61.2464 46.5188 61.5767 47.014 61.7915C47.5092 62.0064 48.0486 62.0996 48.5872 62.0633C48.6042 62.0624 48.6213 62.065 48.6373 62.0709C48.6532 62.0768 48.6679 62.0859 48.6802 62.0976C48.6926 62.1093 48.7024 62.1235 48.7091 62.1392C48.7159 62.1548 48.7193 62.1717 48.7193 62.1888C48.7193 62.2209 48.707 62.2519 48.6849 62.2752C48.6628 62.2986 48.6325 62.3125 48.6004 62.3142C48.4041 62.3203 48.2076 62.3115 48.0126 62.2878Z" fill="#263238"/>
<path d="M44.8342 55.4192C44.7911 55.4149 44.75 55.3989 44.7153 55.3729C44.6884 55.3539 44.6655 55.3297 44.648 55.3018C44.6304 55.2738 44.6186 55.2427 44.613 55.2102C44.6075 55.1777 44.6085 55.1445 44.6158 55.1123C44.6232 55.0802 44.6368 55.0498 44.6558 55.0229C44.8799 54.6929 45.1797 54.4212 45.5301 54.2305C45.8804 54.0398 46.2713 53.9356 46.6702 53.9266C46.7031 53.9283 46.7354 53.9365 46.7652 53.9507C46.7951 53.9649 46.8218 53.9848 46.8438 54.0094C46.8659 54.0339 46.883 54.0626 46.894 54.0937C46.9049 54.1248 46.9097 54.1578 46.9079 54.1908C46.9071 54.2234 46.8997 54.2556 46.8862 54.2854C46.8727 54.3152 46.8534 54.3419 46.8294 54.3641C46.8054 54.3863 46.7771 54.4034 46.7464 54.4144C46.7156 54.4255 46.683 54.4303 46.6503 54.4285C46.3347 54.4391 46.0262 54.5249 45.7505 54.6788C45.4748 54.8327 45.2399 55.0504 45.0653 55.3135C45.0392 55.3496 45.0042 55.3783 44.9637 55.3968C44.9232 55.4153 44.8786 55.423 44.8342 55.4192Z" fill="#263238"/>
<path d="M53.2105 55.0744C53.17 55.0707 53.131 55.0565 53.0975 55.0334C53.064 55.0103 53.0369 54.9789 53.019 54.9423C52.8821 54.6568 52.6787 54.4082 52.4259 54.2175C52.1731 54.0267 51.8782 53.8993 51.5661 53.846C51.5064 53.8321 51.4539 53.7969 51.4185 53.747C51.383 53.6971 51.367 53.6359 51.3735 53.575C51.38 53.5141 51.4086 53.4577 51.4538 53.4164C51.4989 53.3751 51.5577 53.3517 51.6189 53.3507C52.013 53.4118 52.3865 53.5675 52.7074 53.8045C53.0283 54.0414 53.287 54.3525 53.4615 54.7112C53.4774 54.7401 53.4873 54.7719 53.4906 54.8047C53.4938 54.8375 53.4904 54.8707 53.4806 54.9022C53.4707 54.9336 53.4545 54.9628 53.4331 54.9878C53.4117 55.0129 53.3854 55.0334 53.3558 55.048C53.3117 55.0729 53.2605 55.0823 53.2105 55.0744Z" fill="#263238"/>
<path d="M29.1634 82.4554C28.3973 85.8962 27.7501 89.3172 27.1821 92.7778C26.6142 96.2384 26.1056 99.7057 25.7094 103.219L25.5707 104.54L25.4914 105.359C25.431 106 25.4892 106.647 25.6632 107.268C25.8984 108.13 26.3723 108.908 27.0302 109.513C27.5803 110.007 28.2351 110.371 28.9455 110.576C29.7717 110.809 30.6353 110.879 31.4881 110.781C32.5958 110.659 33.686 110.411 34.7374 110.041C35.6818 109.718 36.5535 109.381 37.3791 108.978C39.0363 108.221 40.6522 107.377 42.22 106.449C43.772 105.531 45.258 104.586 46.7373 103.51L44.8551 100.003C41.652 101.112 38.3895 102.301 35.2591 103.16C34.4798 103.378 33.7071 103.563 32.974 103.695C32.3611 103.835 31.7337 103.901 31.105 103.893C30.9135 103.893 30.7616 103.807 31.0654 103.86C31.3615 103.936 31.6325 104.089 31.8513 104.302C32.1941 104.606 32.4457 104.999 32.5778 105.438C32.6335 105.639 32.6667 105.845 32.6769 106.052C32.6769 106.165 32.6769 105.986 32.7099 105.894L32.7693 105.577L33.0071 104.322C33.6543 100.967 34.3147 97.6011 34.9883 94.2241C35.6488 90.8494 36.3488 87.4548 36.9696 84.0932L29.1634 82.4554Z" fill="#F1C3BD"/>
<path d="M28.7708 79.6628C25.3102 83.3678 24.9998 94.7469 24.9998 94.7469L35.0184 99.469C35.0184 99.469 38.2677 92.2373 38.3734 85.6925C38.479 78.2694 32.238 75.9315 28.7708 79.6628Z" fill="#407BFF"/>
<path d="M28.7708 79.6628C25.3102 83.3678 24.9998 94.7469 24.9998 94.7469L35.0184 99.469C35.0184 99.469 38.2677 92.2373 38.3734 85.6925C38.479 78.2694 32.238 75.9315 28.7708 79.6628Z" fill="#9BD3FD"/>
<path d="M64.6888 93.4915C64.7461 93.4911 64.8026 93.4775 64.8539 93.4519C64.9293 93.4065 64.984 93.3335 65.0062 93.2483C65.0284 93.1631 65.0164 93.0726 64.9727 92.9962L59.6894 83.8758C59.6413 83.8096 59.5704 83.7637 59.4904 83.7469C59.4104 83.73 59.327 83.7434 59.2563 83.7845C59.1857 83.8256 59.1327 83.8914 59.1078 83.9693C59.0829 84.0471 59.0877 84.1315 59.1214 84.206L64.3718 93.3264C64.4038 93.3809 64.4505 93.4253 64.5066 93.4545C64.5626 93.4837 64.6258 93.4965 64.6888 93.4915Z" fill="#263238"/>
<path d="M48.2989 118.858L68.2636 115.952C68.6732 115.89 69.0505 115.694 69.3362 115.394C69.6219 115.093 69.7998 114.707 69.842 114.295L71.1628 86.7353C71.1726 86.5515 71.1396 86.368 71.0663 86.1992C70.9931 86.0303 70.8817 85.8808 70.7408 85.7623C70.6 85.6439 70.4335 85.5598 70.2546 85.5166C70.0757 85.4734 69.8893 85.4724 69.7099 85.5135L49.7452 88.4128C49.3352 88.4783 48.9581 88.6766 48.6717 88.9773C48.3854 89.278 48.2057 89.6643 48.1602 90.0771L46.8724 117.637C46.8636 117.818 46.8964 117.998 46.9682 118.165C47.0399 118.331 47.1488 118.479 47.2865 118.597C47.4241 118.715 47.5869 118.8 47.7624 118.845C47.9379 118.89 48.1214 118.895 48.2989 118.858Z" fill="white"/>
<path d="M48.7436 119.137L68.7083 116.218C69.1186 116.156 69.4969 115.959 69.7837 115.66C70.0705 115.36 70.2497 114.973 70.2933 114.56L71.5811 87.0007C71.592 86.8172 71.5599 86.6338 71.4875 86.4649C71.4151 86.2959 71.3043 86.1462 71.1639 86.0276C71.0235 85.909 70.8574 85.8248 70.6787 85.7816C70.5001 85.7385 70.3139 85.7375 70.1348 85.7789L50.1702 88.6782C49.7588 88.7405 49.3798 88.9378 49.0929 89.2391C48.8059 89.5404 48.6273 89.9285 48.5851 90.3425L47.2643 117.895C47.2485 118.084 47.2783 118.274 47.351 118.448C47.4238 118.623 47.5374 118.778 47.6824 118.899C47.8273 119.021 47.9994 119.106 48.1841 119.147C48.3687 119.189 48.5606 119.185 48.7436 119.137Z" fill="#263238"/>
<path d="M44.4694 100.102L49.1651 97.4601L49.7132 104.21C49.7132 104.21 45.2223 105.57 44.2383 103.265L44.4694 100.102Z" fill="#F1C3BD"/>
<path d="M54.3973 98.67L53.7369 103.716L49.7149 104.218L49.1667 97.4681L54.3973 98.67Z" fill="#F1C3BD"/>
</g>
<defs>
<clipPath id="clip0">
<rect width="390" height="200" fill="white"/>
</clipPath>
</defs>
</svg>
